<?xml version="1.0" encoding="UTF-8" standalone="no"?><svg xmlns="http://www.w3.org/2000/svg" xmlns:xlink="http://www.w3.org/1999/xlink" contentStyleType="text/css" height="822px" preserveAspectRatio="none" style="width:1932px;height:822px;background:#FFFFFF;" version="1.1" viewBox="0 0 1932 822" width="1932px" zoomAndPan="magnify"><defs/><g><g id="elem_proginfo"><rect fill="#F1F1F1" height="60.8906" style="stroke:#181818;stroke-width:0.5;" width="97" x="698.15" y="7"/><text fill="#000000" font-family="sans-serif" font-size="14" lengthAdjust="spacing" textLength="83" x="705.15" y="21.9951">ProgramInfo</text><line style="stroke:#181818;stroke-width:0.5;" x1="699.15" x2="794.15" y1="27.2969" y2="27.2969"/><text fill="#000000" font-family="sans-serif" font-size="14" lengthAdjust="spacing" textLength="49" x="704.15" y="44.292">globals</text><text fill="#000000" font-family="sans-serif" font-size="14" lengthAdjust="spacing" textLength="64" x="704.15" y="60.5889">functions</text></g><g id="elem_dtype_signed_int"><rect fill="#F1F1F1" height="60.8906" style="stroke:#181818;stroke-width:0.5;" width="111" x="52.15" y="310.5"/><text fill="#000000" font-family="sans-serif" font-size="14" lengthAdjust="spacing" textLength="83" x="66.15" y="325.4951">DataTypeInt</text><line style="stroke:#181818;stroke-width:0.5;" x1="53.15" x2="162.15" y1="330.7969" y2="330.7969"/><text fill="#000000" font-family="sans-serif" font-size="14" lengthAdjust="spacing" textLength="57" x="58.15" y="347.792">size = 4</text><text fill="#000000" font-family="sans-serif" font-size="14" lengthAdjust="spacing" textLength="99" x="58.15" y="364.0889">signed = True</text></g><g id="elem_dtype_unsigned_int"><rect fill="#F1F1F1" height="60.8906" style="stroke:#181818;stroke-width:0.5;" width="115" x="1347.15" y="755"/><text fill="#000000" font-family="sans-serif" font-size="14" lengthAdjust="spacing" textLength="83" x="1363.15" y="769.9951">DataTypeInt</text><line style="stroke:#181818;stroke-width:0.5;" x1="1348.15" x2="1461.15" y1="775.2969" y2="775.2969"/><text fill="#000000" font-family="sans-serif" font-size="14" lengthAdjust="spacing" textLength="57" x="1353.15" y="792.292">size = 4</text><text fill="#000000" font-family="sans-serif" font-size="14" lengthAdjust="spacing" textLength="103" x="1353.15" y="808.5889">signed = False</text></g><g id="elem_dtype_struct_node_t"><rect fill="#F1F1F1" height="77.1875" style="stroke:#181818;stroke-width:0.5;" width="129" x="1339.15" y="607"/><text fill="#000000" font-family="sans-serif" font-size="14" lengthAdjust="spacing" textLength="107" x="1350.15" y="621.9951">DataTypeStruct</text><line style="stroke:#181818;stroke-width:0.5;" x1="1340.15" x2="1467.15" y1="627.2969" y2="627.2969"/><text fill="#000000" font-family="sans-serif" font-size="14" lengthAdjust="spacing" textLength="117" x="1345.15" y="644.292">name = "node_t"</text><text fill="#000000" font-family="sans-serif" font-size="14" lengthAdjust="spacing" textLength="66" x="1345.15" y="660.5889">size = 16</text><text fill="#000000" font-family="sans-serif" font-size="14" lengthAdjust="spacing" textLength="96" x="1345.15" y="676.8857">membertypes</text></g><g id="elem_DataTypePointer"><rect fill="#F1F1F1" height="60.8906" style="stroke:#181818;stroke-width:0.5;" width="129" x="1339.15" y="463"/><text fill="#000000" font-family="sans-serif" font-size="14" lengthAdjust="spacing" textLength="115" x="1346.15" y="477.9951">DataTypePointer</text><line style="stroke:#181818;stroke-width:0.5;" x1="1340.15" x2="1467.15" y1="483.2969" y2="483.2969"/><text fill="#000000" font-family="sans-serif" font-size="14" lengthAdjust="spacing" textLength="57" x="1345.15" y="500.292">size = 8</text><text fill="#000000" font-family="sans-serif" font-size="14" lengthAdjust="spacing" textLength="64" x="1345.15" y="516.5889">basetype</text></g><g id="elem_var_myglobal"><rect fill="#F1F1F1" height="77.1875" style="stroke:#181818;stroke-width:0.5;" width="237" x="506.15" y="455"/><text fill="#000000" font-family="sans-serif" font-size="14" lengthAdjust="spacing" textLength="54" x="597.65" y="469.9951">Variable</text><line style="stroke:#181818;stroke-width:0.5;" x1="507.15" x2="742.15" y1="475.2969" y2="475.2969"/><text fill="#000000" font-family="sans-serif" font-size="14" lengthAdjust="spacing" textLength="130" x="512.15" y="492.292">name = "myglobal"</text><text fill="#000000" font-family="sans-serif" font-size="14" lengthAdjust="spacing" textLength="225" x="512.15" y="508.5889">liveranges = [&lt;absolute:4014&gt;]</text><text fill="#000000" font-family="sans-serif" font-size="14" lengthAdjust="spacing" textLength="39" x="512.15" y="524.8857">dtype</text></g><g id="elem_fn_main"><rect fill="#F1F1F1" height="93.4844" style="stroke:#181818;stroke-width:0.5;" width="114" x="477.65" y="135"/><text fill="#000000" font-family="sans-serif" font-size="14" lengthAdjust="spacing" textLength="60" x="504.65" y="149.9951">Function</text><line style="stroke:#181818;stroke-width:0.5;" x1="478.65" x2="590.65" y1="155.2969" y2="155.2969"/><text fill="#000000" font-family="sans-serif" font-size="14" lengthAdjust="spacing" textLength="102" x="483.65" y="172.292">name = "main"</text><text fill="#000000" font-family="sans-serif" font-size="14" lengthAdjust="spacing" textLength="51" x="483.65" y="188.5889">params</text><text fill="#000000" font-family="sans-serif" font-size="14" lengthAdjust="spacing" textLength="28" x="483.65" y="204.8857">vars</text><text fill="#000000" font-family="sans-serif" font-size="14" lengthAdjust="spacing" textLength="49" x="483.65" y="221.1826">rettype</text></g><g id="elem_var_main_i"><rect fill="#F1F1F1" height="77.1875" style="stroke:#181818;stroke-width:0.5;" width="201" x="198.15" y="302.5"/><text fill="#000000" font-family="sans-serif" font-size="14" lengthAdjust="spacing" textLength="54" x="271.65" y="317.4951">Variable</text><line style="stroke:#181818;stroke-width:0.5;" x1="199.15" x2="398.15" y1="322.7969" y2="322.7969"/><text fill="#000000" font-family="sans-serif" font-size="14" lengthAdjust="spacing" textLength="72" x="204.15" y="339.792">name = "i"</text><text fill="#000000" font-family="sans-serif" font-size="14" lengthAdjust="spacing" textLength="189" x="204.15" y="356.0889">liveranges = [&lt;stack:-36&gt;]</text><text fill="#000000" font-family="sans-serif" font-size="14" lengthAdjust="spacing" textLength="39" x="204.15" y="372.3857">dtype</text></g><g id="elem_var_main_end_list"><rect fill="#F1F1F1" height="77.1875" style="stroke:#181818;stroke-width:0.5;" width="201" x="434.15" y="302.5"/><text fill="#000000" font-family="sans-serif" font-size="14" lengthAdjust="spacing" textLength="54" x="507.65" y="317.4951">Variable</text><line style="stroke:#181818;stroke-width:0.5;" x1="435.15" x2="634.15" y1="322.7969" y2="322.7969"/><text fill="#000000" font-family="sans-serif" font-size="14" lengthAdjust="spacing" textLength="122" x="440.15" y="339.792">name = "end_list"</text><text fill="#000000" font-family="sans-serif" font-size="14" lengthAdjust="spacing" textLength="189" x="440.15" y="356.0889">liveranges = [&lt;stack:-24&gt;]</text><text fill="#000000" font-family="sans-serif" font-size="14" lengthAdjust="spacing" textLength="39" x="440.15" y="372.3857">dtype</text></g><g id="elem_var_main_iter"><rect fill="#F1F1F1" height="77.1875" style="stroke:#181818;stroke-width:0.5;" width="201" x="670.15" y="302.5"/><text fill="#000000" font-family="sans-serif" font-size="14" lengthAdjust="spacing" textLength="54" x="743.65" y="317.4951">Variable</text><line style="stroke:#181818;stroke-width:0.5;" x1="671.15" x2="870.15" y1="322.7969" y2="322.7969"/><text fill="#000000" font-family="sans-serif" font-size="14" lengthAdjust="spacing" textLength="91" x="676.15" y="339.792">name = "iter"</text><text fill="#000000" font-family="sans-serif" font-size="14" lengthAdjust="spacing" textLength="189" x="676.15" y="356.0889">liveranges = [&lt;stack:-32&gt;]</text><text fill="#000000" font-family="sans-serif" font-size="14" lengthAdjust="spacing" textLength="39" x="676.15" y="372.3857">dtype</text></g><g id="elem_fn_free_fib_list"><rect fill="#F1F1F1" height="93.4844" style="stroke:#181818;stroke-width:0.5;" width="157" x="882.15" y="135"/><text fill="#000000" font-family="sans-serif" font-size="14" lengthAdjust="spacing" textLength="60" x="930.65" y="149.9951">Function</text><line style="stroke:#181818;stroke-width:0.5;" x1="883.15" x2="1038.15" y1="155.2969" y2="155.2969"/><text fill="#000000" font-family="sans-serif" font-size="14" lengthAdjust="spacing" textLength="145" x="888.15" y="172.292">name = "free_fib_list"</text><text fill="#000000" font-family="sans-serif" font-size="14" lengthAdjust="spacing" textLength="51" x="888.15" y="188.5889">params</text><text fill="#000000" font-family="sans-serif" font-size="14" lengthAdjust="spacing" textLength="28" x="888.15" y="204.8857">vars</text><text fill="#000000" font-family="sans-serif" font-size="14" lengthAdjust="spacing" textLength="49" x="888.15" y="221.1826">rettype</text></g><g id="elem_dtype_void"><rect fill="#F1F1F1" height="44.5938" style="stroke:#181818;stroke-width:0.5;" width="110" x="906.65" y="318.5"/><text fill="#000000" font-family="sans-serif" font-size="14" lengthAdjust="spacing" textLength="96" x="913.65" y="333.4951">DataTypeVoid</text><line style="stroke:#181818;stroke-width:0.5;" x1="907.65" x2="1015.65" y1="338.7969" y2="338.7969"/><text fill="#000000" font-family="sans-serif" font-size="14" lengthAdjust="spacing" textLength="57" x="912.65" y="355.792">size = 0</text></g><g id="elem_var_free_fib_list_node"><rect fill="#F1F1F1" height="93.4844" style="stroke:#181818;stroke-width:0.5;" width="201" x="1060.15" y="295"/><text fill="#000000" font-family="sans-serif" font-size="14" lengthAdjust="spacing" textLength="54" x="1133.65" y="309.9951">Variable</text><line style="stroke:#181818;stroke-width:0.5;" x1="1061.15" x2="1260.15" y1="315.2969" y2="315.2969"/><text fill="#000000" font-family="sans-serif" font-size="14" lengthAdjust="spacing" textLength="105" x="1066.15" y="332.292">name = "node"</text><text fill="#000000" font-family="sans-serif" font-size="14" lengthAdjust="spacing" textLength="189" x="1066.15" y="348.5889">liveranges = [&lt;stack:-24&gt;]</text><text fill="#000000" font-family="sans-serif" font-size="14" lengthAdjust="spacing" textLength="39" x="1066.15" y="364.8857">dtype</text><text fill="#000000" font-family="sans-serif" font-size="14" lengthAdjust="spacing" textLength="95" x="1066.15" y="381.1826">param = True</text></g><g id="elem_fn_make_fib_list"><rect fill="#F1F1F1" height="93.4844" style="stroke:#181818;stroke-width:0.5;" width="168" x="1400.65" y="135"/><text fill="#000000" font-family="sans-serif" font-size="14" lengthAdjust="spacing" textLength="60" x="1454.65" y="149.9951">Function</text><line style="stroke:#181818;stroke-width:0.5;" x1="1401.65" x2="1567.65" y1="155.2969" y2="155.2969"/><text fill="#000000" font-family="sans-serif" font-size="14" lengthAdjust="spacing" textLength="156" x="1406.65" y="172.292">name = "make_fib_list"</text><text fill="#000000" font-family="sans-serif" font-size="14" lengthAdjust="spacing" textLength="51" x="1406.65" y="188.5889">params</text><text fill="#000000" font-family="sans-serif" font-size="14" lengthAdjust="spacing" textLength="28" x="1406.65" y="204.8857">vars</text><text fill="#000000" font-family="sans-serif" font-size="14" lengthAdjust="spacing" textLength="49" x="1406.65" y="221.1826">rettype</text></g><g id="elem_var_make_fib_list_n"><rect fill="#F1F1F1" height="93.4844" style="stroke:#181818;stroke-width:0.5;" width="201" x="1699.15" y="599"/><text fill="#000000" font-family="sans-serif" font-size="14" lengthAdjust="spacing" textLength="54" x="1772.65" y="613.9951">Variable</text><line style="stroke:#181818;stroke-width:0.5;" x1="1700.15" x2="1899.15" y1="619.2969" y2="619.2969"/><text fill="#000000" font-family="sans-serif" font-size="14" lengthAdjust="spacing" textLength="78" x="1705.15" y="636.292">name = "n"</text><text fill="#000000" font-family="sans-serif" font-size="14" lengthAdjust="spacing" textLength="189" x="1705.15" y="652.5889">liveranges = [&lt;stack:-36&gt;]</text><text fill="#000000" font-family="sans-serif" font-size="14" lengthAdjust="spacing" textLength="39" x="1705.15" y="668.8857">dtype</text><text fill="#000000" font-family="sans-serif" font-size="14" lengthAdjust="spacing" textLength="95" x="1705.15" y="685.1826">param = True</text></g><g id="elem_var_make_fib_list_node"><rect fill="#F1F1F1" height="77.1875" style="stroke:#181818;stroke-width:0.5;" width="201" x="1384.15" y="303"/><text fill="#000000" font-family="sans-serif" font-size="14" lengthAdjust="spacing" textLength="54" x="1457.65" y="317.9951">Variable</text><line style="stroke:#181818;stroke-width:0.5;" x1="1385.15" x2="1584.15" y1="323.2969" y2="323.2969"/><text fill="#000000" font-family="sans-serif" font-size="14" lengthAdjust="spacing" textLength="105" x="1390.15" y="340.292">name = "node"</text><text fill="#000000" font-family="sans-serif" font-size="14" lengthAdjust="spacing" textLength="189" x="1390.15" y="356.5889">liveranges = [&lt;stack:-32&gt;]</text><text fill="#000000" font-family="sans-serif" font-size="14" lengthAdjust="spacing" textLength="39" x="1390.15" y="372.8857">dtype</text></g><g id="elem_var_make_fib_list_prev"><rect fill="#F1F1F1" height="77.1875" style="stroke:#181818;stroke-width:0.5;" width="201" x="1636.15" y="303"/><text fill="#000000" font-family="sans-serif" font-size="14" lengthAdjust="spacing" textLength="54" x="1709.65" y="317.9951">Variable</text><line style="stroke:#181818;stroke-width:0.5;" x1="1637.15" x2="1836.15" y1="323.2969" y2="323.2969"/><text fill="#000000" font-family="sans-serif" font-size="14" lengthAdjust="spacing" textLength="99" x="1642.15" y="340.292">name = "prev"</text><text fill="#000000" font-family="sans-serif" font-size="14" lengthAdjust="spacing" textLength="189" x="1642.15" y="356.5889">liveranges = [&lt;stack:-24&gt;]</text><text fill="#000000" font-family="sans-serif" font-size="14" lengthAdjust="spacing" textLength="39" x="1642.15" y="372.8857">dtype</text></g><!--MD5=[98e79c17c8f5ce1c1d7e256eba9ff815]
link dtype_struct_node_t to dtype_unsigned_int--><g id="link_dtype_struct_node_t_dtype_unsigned_int"><path codeLine="22" d="M1469.65,671 C1506.86,671 1469.82,717.49 1438.33,750.96 " fill="none" id="dtype_struct_node_t-to-dtype_unsigned_int" style="stroke:#181818;stroke-width:1.0;"/><polygon fill="#181818" points="1434.52,754.98,1443.6164,751.2044,1437.9615,751.3529,1437.813,745.698,1434.52,754.98" style="stroke:#181818;stroke-width:1.0;"/></g><!--MD5=[9351163dc917ded6c0310b8a0ec672a0]
link dtype_struct_node_t to DataTypePointer--><g id="link_dtype_struct_node_t_DataTypePointer"><path codeLine="23" d="M1338.65,671 C1279.75,671 1335.77,583.55 1374.25,531.59 " fill="none" id="dtype_struct_node_t-to-DataTypePointer" style="stroke:#181818;stroke-width:1.0;"/><polygon fill="#181818" points="1377.45,527.29,1368.8693,532.1243,1374.466,531.302,1375.2884,536.8987,1377.45,527.29" style="stroke:#181818;stroke-width:1.0;"/></g><!--MD5=[8fc31b1439939e1025a80ca911ac1262]
link DataTypePointer to dtype_struct_node_t--><g id="link_DataTypePointer_dtype_struct_node_t"><path codeLine="30" d="M1338.65,511 C1298.73,511 1331.19,559.97 1362.89,598.48 " fill="none" id="DataTypePointer-to-dtype_struct_node_t" style="stroke:#181818;stroke-width:1.0;"/><polygon fill="#181818" points="1366.35,602.65,1363.6647,593.1743,1363.1505,598.8077,1357.517,598.2935,1366.35,602.65" style="stroke:#181818;stroke-width:1.0;"/></g><!--MD5=[770ea196be6e444140c0a7aa713db310]
link var_myglobal to dtype_unsigned_int--><g id="link_var_myglobal_dtype_unsigned_int"><path codeLine="37" d="M744.65,519 C991.64,519 1255.5,681.01 1359.15,751.92 " fill="none" id="var_myglobal-to-dtype_unsigned_int" style="stroke:#181818;stroke-width:1.0;"/><polygon fill="#181818" points="1363.37,754.82,1358.2062,746.4334,1359.2452,751.994,1353.6846,753.0331,1363.37,754.82" style="stroke:#181818;stroke-width:1.0;"/></g><!--MD5=[06b9c6fd0f3a6c04abbe77d2a6e4adcf]
link fn_main to dtype_signed_int--><g id="link_fn_main_dtype_signed_int"><path codeLine="45" d="M476.65,215 C340.83,215 304.6,235.46 180.65,291 C170.51,295.55 160.22,301.47 150.7,307.63 " fill="none" id="fn_main-to-dtype_signed_int" style="stroke:#181818;stroke-width:1.0;"/><polygon fill="#181818" points="146.39,310.46,156.1038,308.8344,150.5612,307.703,151.6926,302.1604,146.39,310.46" style="stroke:#181818;stroke-width:1.0;"/></g><!--MD5=[9d41d7f5c6e30a98031de2b7620daa1b]
link fn_main to var_main_i--><g id="link_fn_main_var_main_i"><path codeLine="65" d="M476.65,199 C412.24,199 357.54,256.44 326.39,297.99 " fill="none" id="fn_main-to-var_main_i" style="stroke:#181818;stroke-width:1.0;"/><polygon fill="#181818" points="323.27,302.21,331.8507,297.3757,326.254,298.198,325.4316,292.6013,323.27,302.21" style="stroke:#181818;stroke-width:1.0;"/></g><!--MD5=[e889cc7d4cb14ed9aa6346916b13667f]
link fn_main to var_main_end_list--><g id="link_fn_main_var_main_end_list"><path codeLine="66" d="M592.65,199 C635.9,199 600.32,256.44 568.91,297.99 " fill="none" id="fn_main-to-var_main_end_list" style="stroke:#181818;stroke-width:1.0;"/><polygon fill="#181818" points="565.7,302.21,574.33,297.4641,568.7251,298.2289,567.9602,292.624,565.7,302.21" style="stroke:#181818;stroke-width:1.0;"/></g><!--MD5=[fa056b4a4d159de989943a5ebd8c15fd]
link fn_main to var_main_iter--><g id="link_fn_main_var_main_iter"><path codeLine="67" d="M592.65,199 C657.07,199 711.77,256.44 742.91,297.99 " fill="none" id="fn_main-to-var_main_iter" style="stroke:#181818;stroke-width:1.0;"/><polygon fill="#181818" points="746.04,302.21,743.8784,292.6013,743.056,298.198,737.4593,297.3757,746.04,302.21" style="stroke:#181818;stroke-width:1.0;"/></g><!--MD5=[ae0a9ac18b80ed5781f5ceb445c33e97]
link fn_free_fib_list to dtype_void--><g id="link_fn_free_fib_list_dtype_void"><path codeLine="79" d="M1040.65,215 C1087.41,215 1027.65,278.27 989.27,314.78 " fill="none" id="fn_free_fib_list-to-dtype_void" style="stroke:#181818;stroke-width:1.0;"/><polygon fill="#181818" points="985.63,318.23,994.9189,314.9563,989.2643,314.796,989.4245,309.1415,985.63,318.23" style="stroke:#181818;stroke-width:1.0;"/></g><!--MD5=[ff87f83435da66863ed032051065673e]
link fn_free_fib_list to var_free_fib_list_node--><g id="link_fn_free_fib_list_var_free_fib_list_node"><path codeLine="87" d="M1040.65,183 C1093.78,183 1126.54,240.45 1144.14,285.84 " fill="none" id="fn_free_fib_list-to-var_free_fib_list_node" style="stroke:#181818;stroke-width:1.0;"/><polygon fill="#181818" points="1146,290.75,1146.549,280.9165,1144.2272,286.0748,1139.0688,283.753,1146,290.75" style="stroke:#181818;stroke-width:1.0;"/></g><!--MD5=[94afc484caff8f47e3c2e7facc573d94]
link var_free_fib_list_node to DataTypePointer--><g id="link_var_free_fib_list_node_DataTypePointer"><path codeLine="88" d="M1262.65,359 C1262.76,359 1323.05,415.9 1364.75,455.27 " fill="none" id="var_free_fib_list_node-to-DataTypePointer" style="stroke:#181818;stroke-width:1.0;"/><polygon fill="#181818" points="1368.47,458.78,1364.6755,449.6915,1364.8357,455.346,1359.1811,455.5063,1368.47,458.78" style="stroke:#181818;stroke-width:1.0;"/></g><!--MD5=[881fac245c2778e3173ee4915e3d3bdd]
link fn_make_fib_list to DataTypePointer--><g id="link_fn_make_fib_list_DataTypePointer"><path codeLine="96" d="M1399.65,215 C1319.34,215 1341.94,312.44 1358.65,391 C1363.29,412.81 1372.99,435.62 1382.19,454.04 " fill="none" id="fn_make_fib_list-to-DataTypePointer" style="stroke:#181818;stroke-width:1.0;"/><polygon fill="#181818" points="1384.52,458.62,1384.0225,448.7837,1382.2611,454.1594,1376.8854,452.398,1384.52,458.62" style="stroke:#181818;stroke-width:1.0;"/></g><!--MD5=[a0ca2b305040868ae07cb10698531f7b]
link fn_make_fib_list to var_make_fib_list_n--><g id="link_fn_make_fib_list_var_make_fib_list_n"><path codeLine="104" d="M1569.65,183 C1639.05,183 1822.97,234.08 1862.65,291 C1925.8,381.57 1871.21,516.08 1831.71,590.17 " fill="none" id="fn_make_fib_list-to-var_make_fib_list_n" style="stroke:#181818;stroke-width:1.0;"/><polygon fill="#181818" points="1829.14,594.96,1836.923,588.9246,1831.5062,590.5554,1829.8755,585.1386,1829.14,594.96" style="stroke:#181818;stroke-width:1.0;"/></g><!--MD5=[33ae90046a356b86e279e556525ce9b9]
link var_make_fib_list_n to dtype_unsigned_int--><g id="link_var_make_fib_list_n_dtype_unsigned_int"><path codeLine="105" d="M1698.65,663 C1605.26,663 1506.98,716.01 1451.01,752 " fill="none" id="var_make_fib_list_n-to-dtype_unsigned_int" style="stroke:#181818;stroke-width:1.0;"/><polygon fill="#181818" points="1446.72,754.78,1456.4463,753.2312,1450.9129,752.0561,1452.088,746.5226,1446.72,754.78" style="stroke:#181818;stroke-width:1.0;"/></g><!--MD5=[ffcbb2a6cb326e2c6731665c105e0a04]
link fn_make_fib_list to var_make_fib_list_node--><g id="link_fn_make_fib_list_var_make_fib_list_node"><path codeLine="112" d="M1569.65,199 C1615.2,199 1571.11,253.64 1531.32,294.89 " fill="none" id="fn_make_fib_list-to-var_make_fib_list_node" style="stroke:#181818;stroke-width:1.0;"/><polygon fill="#181818" points="1527.49,298.84,1536.6315,295.1748,1530.9752,295.2548,1530.8952,289.5985,1527.49,298.84" style="stroke:#181818;stroke-width:1.0;"/></g><!--MD5=[fa857b68677652d3a99af98dcd34f812]
link var_make_fib_list_node to DataTypePointer--><g id="link_var_make_fib_list_node_DataTypePointer"><path codeLine="113" d="M1383.65,367 C1348,367 1365.56,417.19 1383.21,453.96 " fill="none" id="var_make_fib_list_node-to-DataTypePointer" style="stroke:#181818;stroke-width:1.0;"/><polygon fill="#181818" points="1385.59,458.83,1385.2559,448.9868,1383.4055,454.3325,1378.0598,452.482,1385.59,458.83" style="stroke:#181818;stroke-width:1.0;"/></g><!--MD5=[8e68c11cb79b40a6f265f870b863e01e]
link fn_make_fib_list to var_make_fib_list_prev--><g id="link_fn_make_fib_list_var_make_fib_list_prev"><path codeLine="120" d="M1569.65,199 C1630,199 1679.82,253.42 1708.9,294.64 " fill="none" id="fn_make_fib_list-to-var_make_fib_list_prev" style="stroke:#181818;stroke-width:1.0;"/><polygon fill="#181818" points="1711.82,298.84,1709.9561,289.1691,1708.9613,294.7378,1703.3926,293.743,1711.82,298.84" style="stroke:#181818;stroke-width:1.0;"/></g><!--MD5=[e332de1c6412dab35254bdb47fcabdd6]
link var_make_fib_list_prev to DataTypePointer--><g id="link_var_make_fib_list_prev_DataTypePointer"><path codeLine="121" d="M1635.65,367 C1620.25,367 1623.28,382.18 1610.65,391 C1570.48,419.04 1521.35,443.38 1481.03,461.13 " fill="none" id="var_make_fib_list_prev-to-DataTypePointer" style="stroke:#181818;stroke-width:1.0;"/><polygon fill="#181818" points="1476.16,463.26,1486.0087,463.3173,1480.7408,461.2559,1482.8021,455.988,1476.16,463.26" style="stroke:#181818;stroke-width:1.0;"/></g><!--MD5=[6553671ebd402763bec62406d31f49fa]
link proginfo to var_myglobal--><g id="link_proginfo_var_myglobal"><path codeLine="123" d="M697.65,39 C603.74,39 83.94,219.29 34.65,291 C9.48,327.63 6,357.02 34.65,391 C92.11,459.13 337.4,481.3 493.06,488.52 " fill="none" id="proginfo-to-var_myglobal" style="stroke:#181818;stroke-width:1.0;"/><polygon fill="#181818" points="498.1,488.75,489.2921,484.3432,493.1052,488.5217,488.9267,492.3348,498.1,488.75" style="stroke:#181818;stroke-width:1.0;"/></g><!--MD5=[5ecd9126c43453670e912ee8d45c828c]
link proginfo to fn_main--><g id="link_proginfo_fn_main"><path codeLine="124" d="M697.65,55 C647.45,55 603.17,92.8 573.48,126.83 " fill="none" id="proginfo-to-fn_main" style="stroke:#181818;stroke-width:1.0;"/><polygon fill="#181818" points="569.93,130.96,578.8241,126.7299,573.184,127.1637,572.7501,121.5235,569.93,130.96" style="stroke:#181818;stroke-width:1.0;"/></g><!--MD5=[c21eb6b6022cada9016891b7ef90ee03]
link proginfo to fn_free_fib_list--><g id="link_proginfo_fn_free_fib_list"><path codeLine="125" d="M796.65,55 C847.05,55 891.61,92.8 921.52,126.83 " fill="none" id="proginfo-to-fn_free_fib_list" style="stroke:#181818;stroke-width:1.0;"/><polygon fill="#181818" points="925.09,130.96,922.2143,121.5403,921.8137,127.183,916.1711,126.7824,925.09,130.96" style="stroke:#181818;stroke-width:1.0;"/></g><!--MD5=[21663bf1941aba0bdbe2999b00c53765]
link proginfo to fn_make_fib_list--><g id="link_proginfo_fn_make_fib_list"><path codeLine="126" d="M796.65,55 C1010.15,55 1255,113.99 1387.37,150.92 " fill="none" id="proginfo-to-fn_make_fib_list" style="stroke:#181818;stroke-width:1.0;"/><polygon fill="#181818" points="1392.42,152.34,1384.8256,146.069,1387.6038,150.9966,1382.6762,153.7748,1392.42,152.34" style="stroke:#181818;stroke-width:1.0;"/></g><!--MD5=[8305d9fab2995c94678ecc8b135eee80]
@startuml example-dsl

object "ProgramInfo" as proginfo {
    globals
    functions
}

object "DataTypeInt" as dtype_signed_int {
    size = 4
    signed = True
}

object "DataTypeInt" as dtype_unsigned_int {
    size = 4
    signed = False
}

object "DataTypeStruct" as dtype_struct_node_t {
    name = "node_t"
    size = 16
    membertypes
}
dtype_struct_node_t::membertypes - -> dtype_unsigned_int
dtype_struct_node_t::membertypes - -> DataTypePointer

object DataTypePointer {
    size = 8
    basetype
}

DataTypePointer::basetype - -> dtype_struct_node_t

object "Variable" as var_myglobal {
    name = "myglobal"
    liveranges = [<absolute:4014>]
    dtype
}
var_myglobal::dtype - -> dtype_unsigned_int

object "Function" as fn_main {
    name = "main"
    params
    vars
    rettype
}
fn_main::rettype - -> dtype_signed_int

object "Variable" as var_main_i {
    name = "i"
    liveranges = [<stack:-36>]
    dtype
}

object "Variable" as var_main_end_list {
    name = "end_list"
    liveranges = [<stack:-24>]
    dtype
}

object "Variable" as var_main_iter {
    name = "iter"
    liveranges = [<stack:-32>]
    dtype
}

fn_main::vars - -> var_main_i
fn_main::vars - -> var_main_end_list
fn_main::vars - -> var_main_iter

object "Function" as fn_free_fib_list {
    name = "free_fib_list"
    params
    vars
    rettype
}

object "DataTypeVoid" as dtype_void {
    size = 0
}
fn_free_fib_list::rettype - -> dtype_void

object "Variable" as var_free_fib_list_node {
    name = "node"
    liveranges = [<stack:-24>]
    dtype
    param = True
}
fn_free_fib_list::params - -> var_free_fib_list_node
var_free_fib_list_node::dtype - -> DataTypePointer

object "Function" as fn_make_fib_list {
    name = "make_fib_list"
    params
    vars
    rettype
}
fn_make_fib_list::rettype - -> DataTypePointer

object "Variable" as var_make_fib_list_n {
    name = "n"
    liveranges = [<stack:-36>]
    dtype
    param = True
}
fn_make_fib_list::params - -> var_make_fib_list_n
var_make_fib_list_n::dtype - -> dtype_unsigned_int

object "Variable" as var_make_fib_list_node {
    name = "node"
    liveranges = [<stack:-32>]
    dtype
}
fn_make_fib_list::vars - -> var_make_fib_list_node
var_make_fib_list_node::dtype - -> DataTypePointer

object "Variable" as var_make_fib_list_prev {
    name = "prev"
    liveranges = [<stack:-24>]
    dtype
}
fn_make_fib_list::vars - -> var_make_fib_list_prev
var_make_fib_list_prev::dtype - -> DataTypePointer

proginfo::globals - -> var_myglobal
proginfo::functions - -> fn_main
proginfo::functions - -> fn_free_fib_list
proginfo::functions - -> fn_make_fib_list



@enduml

PlantUML version 1.2022.7(Mon Aug 22 12:01:30 CDT 2022)
(GPL source distribution)
Java Runtime: OpenJDK Runtime Environment
JVM: OpenJDK 64-Bit Server VM
Default Encoding: UTF-8
Language: en
Country: null
--></g></svg>