<?xml version="1.0" encoding="UTF-8" standalone="no"?><svg xmlns="http://www.w3.org/2000/svg" xmlns:xlink="http://www.w3.org/1999/xlink" contentStyleType="text/css" height="912px" preserveAspectRatio="none" style="width:2187px;height:912px;background:#FFFFFF;" version="1.1" viewBox="0 0 2187 912" width="2187px" zoomAndPan="magnify"><defs/><g><!--MD5=[0f39e4cb6f03951afbf6d14bd2505654]
class Address--><g id="elem_Address"><rect codeLine="2" fill="#F1F1F1" height="64.2969" id="Address" rx="2.5" ry="2.5" style="stroke:#181818;stroke-width:0.5;" width="168" x="258" y="684.5"/><ellipse cx="309.25" cy="700.5" fill="#ADD1B2" rx="11" ry="11" style="stroke:#181818;stroke-width:1.0;"/><path d="M312.2188,706.1406 Q311.6406,706.4375 311,706.5781 Q310.3594,706.7344 309.6563,706.7344 Q307.1563,706.7344 305.8281,705.0938 Q304.5156,703.4375 304.5156,700.3125 Q304.5156,697.1875 305.8281,695.5313 Q307.1563,693.875 309.6563,693.875 Q310.3594,693.875 311,694.0313 Q311.6563,694.1875 312.2188,694.4844 L312.2188,697.2031 Q311.5938,696.625 311,696.3594 Q310.4063,696.0781 309.7813,696.0781 Q308.4375,696.0781 307.75,697.1563 Q307.0625,698.2188 307.0625,700.3125 Q307.0625,702.4063 307.75,703.4844 Q308.4375,704.5469 309.7813,704.5469 Q310.4063,704.5469 311,704.2813 Q311.5938,704 312.2188,703.4219 L312.2188,706.1406 Z " fill="#000000"/><text fill="#000000" font-family="sans-serif" font-size="14" lengthAdjust="spacing" textLength="57" x="329.75" y="705.3467">Address</text><line style="stroke:#181818;stroke-width:0.5;" x1="259" x2="425" y1="716.5" y2="716.5"/><text fill="#000000" font-family="sans-serif" font-size="14" lengthAdjust="spacing" textLength="156" x="264" y="733.4951">AddressType addrtype</text><line style="stroke:#181818;stroke-width:0.5;" x1="259" x2="425" y1="740.7969" y2="740.7969"/></g><!--MD5=[e847157a9a41f0329563cd74f6e8d917]
class AbsoluteAddress--><g id="elem_AbsoluteAddress"><rect codeLine="6" fill="#F1F1F1" height="64.2969" id="AbsoluteAddress" rx="2.5" ry="2.5" style="stroke:#181818;stroke-width:0.5;" width="150" x="7" y="833.5"/><ellipse cx="22" cy="849.5" fill="#ADD1B2" rx="11" ry="11" style="stroke:#181818;stroke-width:1.0;"/><path d="M24.9688,855.1406 Q24.3906,855.4375 23.75,855.5781 Q23.1094,855.7344 22.4063,855.7344 Q19.9063,855.7344 18.5781,854.0938 Q17.2656,852.4375 17.2656,849.3125 Q17.2656,846.1875 18.5781,844.5313 Q19.9063,842.875 22.4063,842.875 Q23.1094,842.875 23.75,843.0313 Q24.4063,843.1875 24.9688,843.4844 L24.9688,846.2031 Q24.3438,845.625 23.75,845.3594 Q23.1563,845.0781 22.5313,845.0781 Q21.1875,845.0781 20.5,846.1563 Q19.8125,847.2188 19.8125,849.3125 Q19.8125,851.4063 20.5,852.4844 Q21.1875,853.5469 22.5313,853.5469 Q23.1563,853.5469 23.75,853.2813 Q24.3438,853 24.9688,852.4219 L24.9688,855.1406 Z " fill="#000000"/><text fill="#000000" font-family="sans-serif" font-size="14" lengthAdjust="spacing" textLength="118" x="36" y="854.3467">AbsoluteAddress</text><line style="stroke:#181818;stroke-width:0.5;" x1="8" x2="156" y1="865.5" y2="865.5"/><text fill="#000000" font-family="sans-serif" font-size="14" lengthAdjust="spacing" textLength="52" x="13" y="882.4951">int addr</text><line style="stroke:#181818;stroke-width:0.5;" x1="8" x2="156" y1="889.7969" y2="889.7969"/></g><!--MD5=[dbea18529409036a758533aa08c4babd]
class StackAddress--><g id="elem_StackAddress"><rect codeLine="9" fill="#F1F1F1" height="64.2969" id="StackAddress" rx="2.5" ry="2.5" style="stroke:#181818;stroke-width:0.5;" width="127" x="192.5" y="833.5"/><ellipse cx="207.5" cy="849.5" fill="#ADD1B2" rx="11" ry="11" style="stroke:#181818;stroke-width:1.0;"/><path d="M210.4688,855.1406 Q209.8906,855.4375 209.25,855.5781 Q208.6094,855.7344 207.9063,855.7344 Q205.4063,855.7344 204.0781,854.0938 Q202.7656,852.4375 202.7656,849.3125 Q202.7656,846.1875 204.0781,844.5313 Q205.4063,842.875 207.9063,842.875 Q208.6094,842.875 209.25,843.0313 Q209.9063,843.1875 210.4688,843.4844 L210.4688,846.2031 Q209.8438,845.625 209.25,845.3594 Q208.6563,845.0781 208.0313,845.0781 Q206.6875,845.0781 206,846.1563 Q205.3125,847.2188 205.3125,849.3125 Q205.3125,851.4063 206,852.4844 Q206.6875,853.5469 208.0313,853.5469 Q208.6563,853.5469 209.25,853.2813 Q209.8438,853 210.4688,852.4219 L210.4688,855.1406 Z " fill="#000000"/><text fill="#000000" font-family="sans-serif" font-size="14" lengthAdjust="spacing" textLength="95" x="221.5" y="854.3467">StackAddress</text><line style="stroke:#181818;stroke-width:0.5;" x1="193.5" x2="318.5" y1="865.5" y2="865.5"/><text fill="#000000" font-family="sans-serif" font-size="14" lengthAdjust="spacing" textLength="60" x="198.5" y="882.4951">int offset</text><line style="stroke:#181818;stroke-width:0.5;" x1="193.5" x2="318.5" y1="889.7969" y2="889.7969"/></g><!--MD5=[5df52be9f41823dc48ade5fbcf9c0c2f]
class RegisterAddress--><g id="elem_RegisterAddress"><rect codeLine="12" fill="#F1F1F1" height="80.5938" id="RegisterAddress" rx="2.5" ry="2.5" style="stroke:#181818;stroke-width:0.5;" width="147" x="354.5" y="825"/><ellipse cx="369.5" cy="841" fill="#ADD1B2" rx="11" ry="11" style="stroke:#181818;stroke-width:1.0;"/><path d="M372.4688,846.6406 Q371.8906,846.9375 371.25,847.0781 Q370.6094,847.2344 369.9063,847.2344 Q367.4063,847.2344 366.0781,845.5938 Q364.7656,843.9375 364.7656,840.8125 Q364.7656,837.6875 366.0781,836.0313 Q367.4063,834.375 369.9063,834.375 Q370.6094,834.375 371.25,834.5313 Q371.9063,834.6875 372.4688,834.9844 L372.4688,837.7031 Q371.8438,837.125 371.25,836.8594 Q370.6563,836.5781 370.0313,836.5781 Q368.6875,836.5781 368,837.6563 Q367.3125,838.7188 367.3125,840.8125 Q367.3125,842.9063 368,843.9844 Q368.6875,845.0469 370.0313,845.0469 Q370.6563,845.0469 371.25,844.7813 Q371.8438,844.5 372.4688,843.9219 L372.4688,846.6406 Z " fill="#000000"/><text fill="#000000" font-family="sans-serif" font-size="14" lengthAdjust="spacing" textLength="115" x="383.5" y="845.8467">RegisterAddress</text><line style="stroke:#181818;stroke-width:0.5;" x1="355.5" x2="500.5" y1="857" y2="857"/><text fill="#000000" font-family="sans-serif" font-size="14" lengthAdjust="spacing" textLength="74" x="360.5" y="873.9951">int register</text><text fill="#000000" font-family="sans-serif" font-size="14" lengthAdjust="spacing" textLength="97" x="360.5" y="890.292">int byte_offset</text><line style="stroke:#181818;stroke-width:0.5;" x1="355.5" x2="500.5" y1="897.5938" y2="897.5938"/></g><!--MD5=[d893146fd5308f1fa9d61bca06048141]
class RegisterOffsetAddress--><g id="elem_RegisterOffsetAddress"><rect codeLine="16" fill="#F1F1F1" height="80.5938" id="RegisterOffsetAddress" rx="2.5" ry="2.5" style="stroke:#181818;stroke-width:0.5;" width="188" x="537" y="825"/><ellipse cx="552" cy="841" fill="#ADD1B2" rx="11" ry="11" style="stroke:#181818;stroke-width:1.0;"/><path d="M554.9688,846.6406 Q554.3906,846.9375 553.75,847.0781 Q553.1094,847.2344 552.4063,847.2344 Q549.9063,847.2344 548.5781,845.5938 Q547.2656,843.9375 547.2656,840.8125 Q547.2656,837.6875 548.5781,836.0313 Q549.9063,834.375 552.4063,834.375 Q553.1094,834.375 553.75,834.5313 Q554.4063,834.6875 554.9688,834.9844 L554.9688,837.7031 Q554.3438,837.125 553.75,836.8594 Q553.1563,836.5781 552.5313,836.5781 Q551.1875,836.5781 550.5,837.6563 Q549.8125,838.7188 549.8125,840.8125 Q549.8125,842.9063 550.5,843.9844 Q551.1875,845.0469 552.5313,845.0469 Q553.1563,845.0469 553.75,844.7813 Q554.3438,844.5 554.9688,843.9219 L554.9688,846.6406 Z " fill="#000000"/><text fill="#000000" font-family="sans-serif" font-size="14" lengthAdjust="spacing" textLength="156" x="566" y="845.8467">RegisterOffsetAddress</text><line style="stroke:#181818;stroke-width:0.5;" x1="538" x2="724" y1="857" y2="857"/><text fill="#000000" font-family="sans-serif" font-size="14" lengthAdjust="spacing" textLength="74" x="543" y="873.9951">int register</text><text fill="#000000" font-family="sans-serif" font-size="14" lengthAdjust="spacing" textLength="60" x="543" y="890.292">int offset</text><line style="stroke:#181818;stroke-width:0.5;" x1="538" x2="724" y1="897.5938" y2="897.5938"/></g><!--MD5=[52e1fd5461ff4ceab50e068d93182b02]
class AddressLiveRange--><g id="elem_AddressLiveRange"><rect codeLine="26" fill="#F1F1F1" height="96.8906" id="AddressLiveRange" rx="2.5" ry="2.5" style="stroke:#181818;stroke-width:0.5;" width="160" x="500" y="511"/><ellipse cx="515" cy="527" fill="#ADD1B2" rx="11" ry="11" style="stroke:#181818;stroke-width:1.0;"/><path d="M517.9688,532.6406 Q517.3906,532.9375 516.75,533.0781 Q516.1094,533.2344 515.4063,533.2344 Q512.9063,533.2344 511.5781,531.5938 Q510.2656,529.9375 510.2656,526.8125 Q510.2656,523.6875 511.5781,522.0313 Q512.9063,520.375 515.4063,520.375 Q516.1094,520.375 516.75,520.5313 Q517.4063,520.6875 517.9688,520.9844 L517.9688,523.7031 Q517.3438,523.125 516.75,522.8594 Q516.1563,522.5781 515.5313,522.5781 Q514.1875,522.5781 513.5,523.6563 Q512.8125,524.7188 512.8125,526.8125 Q512.8125,528.9063 513.5,529.9844 Q514.1875,531.0469 515.5313,531.0469 Q516.1563,531.0469 516.75,530.7813 Q517.3438,530.5 517.9688,529.9219 L517.9688,532.6406 Z " fill="#000000"/><text fill="#000000" font-family="sans-serif" font-size="14" lengthAdjust="spacing" textLength="128" x="529" y="531.8467">AddressLiveRange</text><line style="stroke:#181818;stroke-width:0.5;" x1="501" x2="659" y1="543" y2="543"/><text fill="#000000" font-family="sans-serif" font-size="14" lengthAdjust="spacing" textLength="92" x="506" y="559.9951">Address addr</text><text fill="#000000" font-family="sans-serif" font-size="14" lengthAdjust="spacing" textLength="109" x="506" y="576.292">Address startpc</text><text fill="#000000" font-family="sans-serif" font-size="14" lengthAdjust="spacing" textLength="105" x="506" y="592.5889">Address endpc</text><line style="stroke:#181818;stroke-width:0.5;" x1="501" x2="659" y1="599.8906" y2="599.8906"/></g><!--MD5=[3949b939274c3ebd79b8ab92605ab7ed]
class DataType--><g id="elem_DataType"><rect codeLine="34" fill="#F1F1F1" height="80.5938" id="DataType" rx="2.5" ry="2.5" style="stroke:#181818;stroke-width:0.5;" width="149" x="1036.5" y="519"/><ellipse cx="1074.45" cy="535" fill="#ADD1B2" rx="11" ry="11" style="stroke:#181818;stroke-width:1.0;"/><path d="M1077.4188,540.6406 Q1076.8406,540.9375 1076.2,541.0781 Q1075.5594,541.2344 1074.8563,541.2344 Q1072.3563,541.2344 1071.0281,539.5938 Q1069.7156,537.9375 1069.7156,534.8125 Q1069.7156,531.6875 1071.0281,530.0313 Q1072.3563,528.375 1074.8563,528.375 Q1075.5594,528.375 1076.2,528.5313 Q1076.8563,528.6875 1077.4188,528.9844 L1077.4188,531.7031 Q1076.7938,531.125 1076.2,530.8594 Q1075.6063,530.5781 1074.9813,530.5781 Q1073.6375,530.5781 1072.95,531.6563 Q1072.2625,532.7188 1072.2625,534.8125 Q1072.2625,536.9063 1072.95,537.9844 Q1073.6375,539.0469 1074.9813,539.0469 Q1075.6063,539.0469 1076.2,538.7813 Q1076.7938,538.5 1077.4188,537.9219 L1077.4188,540.6406 Z " fill="#000000"/><text fill="#000000" font-family="sans-serif" font-size="14" lengthAdjust="spacing" textLength="66" x="1093.55" y="539.8467">DataType</text><line style="stroke:#181818;stroke-width:0.5;" x1="1037.5" x2="1184.5" y1="551" y2="551"/><text fill="#000000" font-family="sans-serif" font-size="14" lengthAdjust="spacing" textLength="137" x="1042.5" y="567.9951">MetaType metatype</text><text fill="#000000" font-family="sans-serif" font-size="14" lengthAdjust="spacing" textLength="49" x="1042.5" y="584.292">int size</text><line style="stroke:#181818;stroke-width:0.5;" x1="1037.5" x2="1184.5" y1="591.5938" y2="591.5938"/></g><!--MD5=[a59e5206eab109b4b2c956d4cc09d4b2]
class DataTypeFloat--><g id="elem_DataTypeFloat"><rect codeLine="39" fill="#F1F1F1" height="48" id="DataTypeFloat" rx="2.5" ry="2.5" style="stroke:#181818;stroke-width:0.5;" width="131" x="461.5" y="692.5"/><ellipse cx="476.5" cy="708.5" fill="#ADD1B2" rx="11" ry="11" style="stroke:#181818;stroke-width:1.0;"/><path d="M479.4688,714.1406 Q478.8906,714.4375 478.25,714.5781 Q477.6094,714.7344 476.9063,714.7344 Q474.4063,714.7344 473.0781,713.0938 Q471.7656,711.4375 471.7656,708.3125 Q471.7656,705.1875 473.0781,703.5313 Q474.4063,701.875 476.9063,701.875 Q477.6094,701.875 478.25,702.0313 Q478.9063,702.1875 479.4688,702.4844 L479.4688,705.2031 Q478.8438,704.625 478.25,704.3594 Q477.6563,704.0781 477.0313,704.0781 Q475.6875,704.0781 475,705.1563 Q474.3125,706.2188 474.3125,708.3125 Q474.3125,710.4063 475,711.4844 Q475.6875,712.5469 477.0313,712.5469 Q477.6563,712.5469 478.25,712.2813 Q478.8438,712 479.4688,711.4219 L479.4688,714.1406 Z " fill="#000000"/><text fill="#000000" font-family="sans-serif" font-size="14" lengthAdjust="spacing" textLength="99" x="490.5" y="713.3467">DataTypeFloat</text><line style="stroke:#181818;stroke-width:0.5;" x1="462.5" x2="591.5" y1="724.5" y2="724.5"/><line style="stroke:#181818;stroke-width:0.5;" x1="462.5" x2="591.5" y1="732.5" y2="732.5"/></g><!--MD5=[531d479e8701a496e85119fe2ce38ea7]
class DataTypeFunctionPrototype--><g id="elem_DataTypeFunctionPrototype"><rect codeLine="40" fill="#F1F1F1" height="96.8906" id="DataTypeFunctionPrototype" rx="2.5" ry="2.5" style="stroke:#181818;stroke-width:0.5;" width="225" x="627.5" y="668"/><ellipse cx="642.5" cy="684" fill="#ADD1B2" rx="11" ry="11" style="stroke:#181818;stroke-width:1.0;"/><path d="M645.4688,689.6406 Q644.8906,689.9375 644.25,690.0781 Q643.6094,690.2344 642.9063,690.2344 Q640.4063,690.2344 639.0781,688.5938 Q637.7656,686.9375 637.7656,683.8125 Q637.7656,680.6875 639.0781,679.0313 Q640.4063,677.375 642.9063,677.375 Q643.6094,677.375 644.25,677.5313 Q644.9063,677.6875 645.4688,677.9844 L645.4688,680.7031 Q644.8438,680.125 644.25,679.8594 Q643.6563,679.5781 643.0313,679.5781 Q641.6875,679.5781 641,680.6563 Q640.3125,681.7188 640.3125,683.8125 Q640.3125,685.9063 641,686.9844 Q641.6875,688.0469 643.0313,688.0469 Q643.6563,688.0469 644.25,687.7813 Q644.8438,687.5 645.4688,686.9219 L645.4688,689.6406 Z " fill="#000000"/><text fill="#000000" font-family="sans-serif" font-size="14" lengthAdjust="spacing" textLength="193" x="656.5" y="688.8467">DataTypeFunctionPrototype</text><line style="stroke:#181818;stroke-width:0.5;" x1="628.5" x2="851.5" y1="700" y2="700"/><text fill="#000000" font-family="sans-serif" font-size="14" lengthAdjust="spacing" textLength="119" x="633.5" y="716.9951">DataType rettype</text><text fill="#000000" font-family="sans-serif" font-size="14" lengthAdjust="spacing" textLength="104" x="633.5" y="733.292">list paramtypes</text><text fill="#000000" font-family="sans-serif" font-size="14" lengthAdjust="spacing" textLength="85" x="633.5" y="749.5889">bool variadic</text><line style="stroke:#181818;stroke-width:0.5;" x1="628.5" x2="851.5" y1="756.8906" y2="756.8906"/></g><!--MD5=[75811771682a917af44ac13ed9cc2cf3]
class DataTypeInt--><g id="elem_DataTypeInt"><rect codeLine="45" fill="#F1F1F1" height="64.2969" id="DataTypeInt" rx="2.5" ry="2.5" style="stroke:#181818;stroke-width:0.5;" width="115" x="887.5" y="684.5"/><ellipse cx="902.5" cy="700.5" fill="#ADD1B2" rx="11" ry="11" style="stroke:#181818;stroke-width:1.0;"/><path d="M905.4688,706.1406 Q904.8906,706.4375 904.25,706.5781 Q903.6094,706.7344 902.9063,706.7344 Q900.4063,706.7344 899.0781,705.0938 Q897.7656,703.4375 897.7656,700.3125 Q897.7656,697.1875 899.0781,695.5313 Q900.4063,693.875 902.9063,693.875 Q903.6094,693.875 904.25,694.0313 Q904.9063,694.1875 905.4688,694.4844 L905.4688,697.2031 Q904.8438,696.625 904.25,696.3594 Q903.6563,696.0781 903.0313,696.0781 Q901.6875,696.0781 901,697.1563 Q900.3125,698.2188 900.3125,700.3125 Q900.3125,702.4063 901,703.4844 Q901.6875,704.5469 903.0313,704.5469 Q903.6563,704.5469 904.25,704.2813 Q904.8438,704 905.4688,703.4219 L905.4688,706.1406 Z " fill="#000000"/><text fill="#000000" font-family="sans-serif" font-size="14" lengthAdjust="spacing" textLength="83" x="916.5" y="705.3467">DataTypeInt</text><line style="stroke:#181818;stroke-width:0.5;" x1="888.5" x2="1001.5" y1="716.5" y2="716.5"/><text fill="#000000" font-family="sans-serif" font-size="14" lengthAdjust="spacing" textLength="81" x="893.5" y="733.4951">bool signed</text><line style="stroke:#181818;stroke-width:0.5;" x1="888.5" x2="1001.5" y1="740.7969" y2="740.7969"/></g><!--MD5=[462c2ea0b006ebf4c538d57b87d55c64]
class DataTypePointer--><g id="elem_DataTypePointer"><rect codeLine="48" fill="#F1F1F1" height="64.2969" id="DataTypePointer" rx="2.5" ry="2.5" style="stroke:#181818;stroke-width:0.5;" width="147" x="1037.5" y="684.5"/><ellipse cx="1052.5" cy="700.5" fill="#ADD1B2" rx="11" ry="11" style="stroke:#181818;stroke-width:1.0;"/><path d="M1055.4688,706.1406 Q1054.8906,706.4375 1054.25,706.5781 Q1053.6094,706.7344 1052.9063,706.7344 Q1050.4063,706.7344 1049.0781,705.0938 Q1047.7656,703.4375 1047.7656,700.3125 Q1047.7656,697.1875 1049.0781,695.5313 Q1050.4063,693.875 1052.9063,693.875 Q1053.6094,693.875 1054.25,694.0313 Q1054.9063,694.1875 1055.4688,694.4844 L1055.4688,697.2031 Q1054.8438,696.625 1054.25,696.3594 Q1053.6563,696.0781 1053.0313,696.0781 Q1051.6875,696.0781 1051,697.1563 Q1050.3125,698.2188 1050.3125,700.3125 Q1050.3125,702.4063 1051,703.4844 Q1051.6875,704.5469 1053.0313,704.5469 Q1053.6563,704.5469 1054.25,704.2813 Q1054.8438,704 1055.4688,703.4219 L1055.4688,706.1406 Z " fill="#000000"/><text fill="#000000" font-family="sans-serif" font-size="14" lengthAdjust="spacing" textLength="115" x="1066.5" y="705.3467">DataTypePointer</text><line style="stroke:#181818;stroke-width:0.5;" x1="1038.5" x2="1183.5" y1="716.5" y2="716.5"/><text fill="#000000" font-family="sans-serif" font-size="14" lengthAdjust="spacing" textLength="134" x="1043.5" y="733.4951">DataType basetype</text><line style="stroke:#181818;stroke-width:0.5;" x1="1038.5" x2="1183.5" y1="740.7969" y2="740.7969"/></g><!--MD5=[37928bc3ab62242a866637ad70bff8ae]
class DataTypeStruct--><g id="elem_DataTypeStruct"><rect codeLine="51" fill="#F1F1F1" height="64.2969" id="DataTypeStruct" rx="2.5" ry="2.5" style="stroke:#181818;stroke-width:0.5;" width="188" x="1220" y="684.5"/><ellipse cx="1257.05" cy="700.5" fill="#ADD1B2" rx="11" ry="11" style="stroke:#181818;stroke-width:1.0;"/><path d="M1260.0188,706.1406 Q1259.4406,706.4375 1258.8,706.5781 Q1258.1594,706.7344 1257.4563,706.7344 Q1254.9563,706.7344 1253.6281,705.0938 Q1252.3156,703.4375 1252.3156,700.3125 Q1252.3156,697.1875 1253.6281,695.5313 Q1254.9563,693.875 1257.4563,693.875 Q1258.1594,693.875 1258.8,694.0313 Q1259.4563,694.1875 1260.0188,694.4844 L1260.0188,697.2031 Q1259.3938,696.625 1258.8,696.3594 Q1258.2063,696.0781 1257.5813,696.0781 Q1256.2375,696.0781 1255.55,697.1563 Q1254.8625,698.2188 1254.8625,700.3125 Q1254.8625,702.4063 1255.55,703.4844 Q1256.2375,704.5469 1257.5813,704.5469 Q1258.2063,704.5469 1258.8,704.2813 Q1259.3938,704 1260.0188,703.4219 L1260.0188,706.1406 Z " fill="#000000"/><text fill="#000000" font-family="sans-serif" font-size="14" lengthAdjust="spacing" textLength="107" x="1275.95" y="705.3467">DataTypeStruct</text><line style="stroke:#181818;stroke-width:0.5;" x1="1221" x2="1407" y1="716.5" y2="716.5"/><text fill="#000000" font-family="sans-serif" font-size="14" lengthAdjust="spacing" textLength="176" x="1226" y="733.4951">DataType[] membertypes</text><line style="stroke:#181818;stroke-width:0.5;" x1="1221" x2="1407" y1="740.7969" y2="740.7969"/></g><!--MD5=[09c186c9a31d5878f6ca3fb3066a3a19]
class DataTypeUndefined--><g id="elem_DataTypeUndefined"><rect codeLine="54" fill="#F1F1F1" height="48" id="DataTypeUndefined" rx="2.5" ry="2.5" style="stroke:#181818;stroke-width:0.5;" width="169" x="1443.5" y="692.5"/><ellipse cx="1458.5" cy="708.5" fill="#ADD1B2" rx="11" ry="11" style="stroke:#181818;stroke-width:1.0;"/><path d="M1461.4688,714.1406 Q1460.8906,714.4375 1460.25,714.5781 Q1459.6094,714.7344 1458.9063,714.7344 Q1456.4063,714.7344 1455.0781,713.0938 Q1453.7656,711.4375 1453.7656,708.3125 Q1453.7656,705.1875 1455.0781,703.5313 Q1456.4063,701.875 1458.9063,701.875 Q1459.6094,701.875 1460.25,702.0313 Q1460.9063,702.1875 1461.4688,702.4844 L1461.4688,705.2031 Q1460.8438,704.625 1460.25,704.3594 Q1459.6563,704.0781 1459.0313,704.0781 Q1457.6875,704.0781 1457,705.1563 Q1456.3125,706.2188 1456.3125,708.3125 Q1456.3125,710.4063 1457,711.4844 Q1457.6875,712.5469 1459.0313,712.5469 Q1459.6563,712.5469 1460.25,712.2813 Q1460.8438,712 1461.4688,711.4219 L1461.4688,714.1406 Z " fill="#000000"/><text fill="#000000" font-family="sans-serif" font-size="14" lengthAdjust="spacing" textLength="137" x="1472.5" y="713.3467">DataTypeUndefined</text><line style="stroke:#181818;stroke-width:0.5;" x1="1444.5" x2="1611.5" y1="724.5" y2="724.5"/><line style="stroke:#181818;stroke-width:0.5;" x1="1444.5" x2="1611.5" y1="732.5" y2="732.5"/></g><!--MD5=[9b825c1398c78c8399b894d82df004e9]
class DataTypeUnion--><g id="elem_DataTypeUnion"><rect codeLine="55" fill="#F1F1F1" height="64.2969" id="DataTypeUnion" rx="2.5" ry="2.5" style="stroke:#181818;stroke-width:0.5;" width="188" x="1648" y="684.5"/><ellipse cx="1685.5" cy="700.5" fill="#ADD1B2" rx="11" ry="11" style="stroke:#181818;stroke-width:1.0;"/><path d="M1688.4688,706.1406 Q1687.8906,706.4375 1687.25,706.5781 Q1686.6094,706.7344 1685.9063,706.7344 Q1683.4063,706.7344 1682.0781,705.0938 Q1680.7656,703.4375 1680.7656,700.3125 Q1680.7656,697.1875 1682.0781,695.5313 Q1683.4063,693.875 1685.9063,693.875 Q1686.6094,693.875 1687.25,694.0313 Q1687.9063,694.1875 1688.4688,694.4844 L1688.4688,697.2031 Q1687.8438,696.625 1687.25,696.3594 Q1686.6563,696.0781 1686.0313,696.0781 Q1684.6875,696.0781 1684,697.1563 Q1683.3125,698.2188 1683.3125,700.3125 Q1683.3125,702.4063 1684,703.4844 Q1684.6875,704.5469 1686.0313,704.5469 Q1686.6563,704.5469 1687.25,704.2813 Q1687.8438,704 1688.4688,703.4219 L1688.4688,706.1406 Z " fill="#000000"/><text fill="#000000" font-family="sans-serif" font-size="14" lengthAdjust="spacing" textLength="106" x="1704.5" y="705.3467">DataTypeUnion</text><line style="stroke:#181818;stroke-width:0.5;" x1="1649" x2="1835" y1="716.5" y2="716.5"/><text fill="#000000" font-family="sans-serif" font-size="14" lengthAdjust="spacing" textLength="176" x="1654" y="733.4951">DataType[] membertypes</text><line style="stroke:#181818;stroke-width:0.5;" x1="1649" x2="1835" y1="740.7969" y2="740.7969"/></g><!--MD5=[ef05be8644dcd54b170e5b641fd4dfb8]
class DataTypeVoid--><g id="elem_DataTypeVoid"><rect codeLine="58" fill="#F1F1F1" height="48" id="DataTypeVoid" rx="2.5" ry="2.5" style="stroke:#181818;stroke-width:0.5;" width="128" x="1871" y="692.5"/><ellipse cx="1886" cy="708.5" fill="#ADD1B2" rx="11" ry="11" style="stroke:#181818;stroke-width:1.0;"/><path d="M1888.9688,714.1406 Q1888.3906,714.4375 1887.75,714.5781 Q1887.1094,714.7344 1886.4063,714.7344 Q1883.9063,714.7344 1882.5781,713.0938 Q1881.2656,711.4375 1881.2656,708.3125 Q1881.2656,705.1875 1882.5781,703.5313 Q1883.9063,701.875 1886.4063,701.875 Q1887.1094,701.875 1887.75,702.0313 Q1888.4063,702.1875 1888.9688,702.4844 L1888.9688,705.2031 Q1888.3438,704.625 1887.75,704.3594 Q1887.1563,704.0781 1886.5313,704.0781 Q1885.1875,704.0781 1884.5,705.1563 Q1883.8125,706.2188 1883.8125,708.3125 Q1883.8125,710.4063 1884.5,711.4844 Q1885.1875,712.5469 1886.5313,712.5469 Q1887.1563,712.5469 1887.75,712.2813 Q1888.3438,712 1888.9688,711.4219 L1888.9688,714.1406 Z " fill="#000000"/><text fill="#000000" font-family="sans-serif" font-size="14" lengthAdjust="spacing" textLength="96" x="1900" y="713.3467">DataTypeVoid</text><line style="stroke:#181818;stroke-width:0.5;" x1="1872" x2="1998" y1="724.5" y2="724.5"/><line style="stroke:#181818;stroke-width:0.5;" x1="1872" x2="1998" y1="732.5" y2="732.5"/></g><!--MD5=[7a0faed38eb613d2487815208c169dbf]
class DataTypeArray--><g id="elem_DataTypeArray"><rect codeLine="59" fill="#F1F1F1" height="80.5938" id="DataTypeArray" rx="2.5" ry="2.5" style="stroke:#181818;stroke-width:0.5;" width="146" x="2034" y="676"/><ellipse cx="2055.3" cy="692" fill="#ADD1B2" rx="11" ry="11" style="stroke:#181818;stroke-width:1.0;"/><path d="M2058.2688,697.6406 Q2057.6906,697.9375 2057.05,698.0781 Q2056.4094,698.2344 2055.7063,698.2344 Q2053.2063,698.2344 2051.8781,696.5938 Q2050.5656,694.9375 2050.5656,691.8125 Q2050.5656,688.6875 2051.8781,687.0313 Q2053.2063,685.375 2055.7063,685.375 Q2056.4094,685.375 2057.05,685.5313 Q2057.7063,685.6875 2058.2688,685.9844 L2058.2688,688.7031 Q2057.6438,688.125 2057.05,687.8594 Q2056.4563,687.5781 2055.8313,687.5781 Q2054.4875,687.5781 2053.8,688.6563 Q2053.1125,689.7188 2053.1125,691.8125 Q2053.1125,693.9063 2053.8,694.9844 Q2054.4875,696.0469 2055.8313,696.0469 Q2056.4563,696.0469 2057.05,695.7813 Q2057.6438,695.5 2058.2688,694.9219 L2058.2688,697.6406 Z " fill="#000000"/><text fill="#000000" font-family="sans-serif" font-size="14" lengthAdjust="spacing" textLength="100" x="2070.7" y="696.8467">DataTypeArray</text><line style="stroke:#181818;stroke-width:0.5;" x1="2035" x2="2179" y1="708" y2="708"/><text fill="#000000" font-family="sans-serif" font-size="14" lengthAdjust="spacing" textLength="134" x="2040" y="724.9951">DataType basetype</text><text fill="#000000" font-family="sans-serif" font-size="14" lengthAdjust="spacing" textLength="119" x="2040" y="741.292">tuple dimensions</text><line style="stroke:#181818;stroke-width:0.5;" x1="2035" x2="2179" y1="748.5938" y2="748.5938"/></g><!--MD5=[1e667c6ad6db7468aaf1f24fbbf1ec5d]
class Variable--><g id="elem_Variable"><rect codeLine="74" fill="#F1F1F1" height="96.8906" id="Variable" rx="2.5" ry="2.5" style="stroke:#181818;stroke-width:0.5;" width="224" x="588" y="354"/><ellipse cx="668.75" cy="370" fill="#ADD1B2" rx="11" ry="11" style="stroke:#181818;stroke-width:1.0;"/><path d="M671.7188,375.6406 Q671.1406,375.9375 670.5,376.0781 Q669.8594,376.2344 669.1563,376.2344 Q666.6563,376.2344 665.3281,374.5938 Q664.0156,372.9375 664.0156,369.8125 Q664.0156,366.6875 665.3281,365.0313 Q666.6563,363.375 669.1563,363.375 Q669.8594,363.375 670.5,363.5313 Q671.1563,363.6875 671.7188,363.9844 L671.7188,366.7031 Q671.0938,366.125 670.5,365.8594 Q669.9063,365.5781 669.2813,365.5781 Q667.9375,365.5781 667.25,366.6563 Q666.5625,367.7188 666.5625,369.8125 Q666.5625,371.9063 667.25,372.9844 Q667.9375,374.0469 669.2813,374.0469 Q669.9063,374.0469 670.5,373.7813 Q671.0938,373.5 671.7188,372.9219 L671.7188,375.6406 Z " fill="#000000"/><text fill="#000000" font-family="sans-serif" font-size="14" lengthAdjust="spacing" textLength="54" x="689.25" y="374.8467">Variable</text><line style="stroke:#181818;stroke-width:0.5;" x1="589" x2="811" y1="386" y2="386"/><text fill="#000000" font-family="sans-serif" font-size="14" lengthAdjust="spacing" textLength="83" x="594" y="402.9951">String name</text><text fill="#000000" font-family="sans-serif" font-size="14" lengthAdjust="spacing" textLength="212" x="594" y="419.292">AddressLiveRange[] liveranges</text><text fill="#000000" font-family="sans-serif" font-size="14" lengthAdjust="spacing" textLength="109" x="594" y="435.5889">DataType dtype</text><line style="stroke:#181818;stroke-width:0.5;" x1="589" x2="811" y1="442.8906" y2="442.8906"/></g><!--MD5=[4899ead58b536ff968fbcbdca857d192]
class Function--><g id="elem_Function"><rect codeLine="83" fill="#F1F1F1" height="145.7813" id="Function" rx="2.5" ry="2.5" style="stroke:#181818;stroke-width:0.5;" width="135" x="786.5" y="148"/><ellipse cx="820.85" cy="164" fill="#ADD1B2" rx="11" ry="11" style="stroke:#181818;stroke-width:1.0;"/><path d="M823.8188,169.6406 Q823.2406,169.9375 822.6,170.0781 Q821.9594,170.2344 821.2563,170.2344 Q818.7563,170.2344 817.4281,168.5938 Q816.1156,166.9375 816.1156,163.8125 Q816.1156,160.6875 817.4281,159.0313 Q818.7563,157.375 821.2563,157.375 Q821.9594,157.375 822.6,157.5313 Q823.2563,157.6875 823.8188,157.9844 L823.8188,160.7031 Q823.1938,160.125 822.6,159.8594 Q822.0063,159.5781 821.3813,159.5781 Q820.0375,159.5781 819.35,160.6563 Q818.6625,161.7188 818.6625,163.8125 Q818.6625,165.9063 819.35,166.9844 Q820.0375,168.0469 821.3813,168.0469 Q822.0063,168.0469 822.6,167.7813 Q823.1938,167.5 823.8188,166.9219 L823.8188,169.6406 Z " fill="#000000"/><text fill="#000000" font-family="sans-serif" font-size="14" lengthAdjust="spacing" textLength="60" x="839.15" y="168.8467">Function</text><line style="stroke:#181818;stroke-width:0.5;" x1="787.5" x2="920.5" y1="180" y2="180"/><text fill="#000000" font-family="sans-serif" font-size="14" lengthAdjust="spacing" textLength="83" x="792.5" y="196.9951">String name</text><text fill="#000000" font-family="sans-serif" font-size="14" lengthAdjust="spacing" textLength="123" x="792.5" y="213.292">Address startaddr</text><text fill="#000000" font-family="sans-serif" font-size="14" lengthAdjust="spacing" textLength="119" x="792.5" y="229.5889">Address endaddr</text><text fill="#000000" font-family="sans-serif" font-size="14" lengthAdjust="spacing" textLength="96" x="792.5" y="245.8857">Variable[] vars</text><text fill="#000000" font-family="sans-serif" font-size="14" lengthAdjust="spacing" textLength="119" x="792.5" y="262.1826">Variable[] params</text><text fill="#000000" font-family="sans-serif" font-size="14" lengthAdjust="spacing" textLength="119" x="792.5" y="278.4795">DataType rettype</text><line style="stroke:#181818;stroke-width:0.5;" x1="787.5" x2="920.5" y1="285.7813" y2="285.7813"/></g><!--MD5=[208c289a429074c70e9044d96b3b3397]
class ProgramInfo--><g id="elem_ProgramInfo"><rect codeLine="96" fill="#F1F1F1" height="80.5938" id="ProgramInfo" rx="2.5" ry="2.5" style="stroke:#181818;stroke-width:0.5;" width="150" x="707" y="7"/><ellipse cx="737.75" cy="23" fill="#ADD1B2" rx="11" ry="11" style="stroke:#181818;stroke-width:1.0;"/><path d="M740.7188,28.6406 Q740.1406,28.9375 739.5,29.0781 Q738.8594,29.2344 738.1563,29.2344 Q735.6563,29.2344 734.3281,27.5938 Q733.0156,25.9375 733.0156,22.8125 Q733.0156,19.6875 734.3281,18.0313 Q735.6563,16.375 738.1563,16.375 Q738.8594,16.375 739.5,16.5313 Q740.1563,16.6875 740.7188,16.9844 L740.7188,19.7031 Q740.0938,19.125 739.5,18.8594 Q738.9063,18.5781 738.2813,18.5781 Q736.9375,18.5781 736.25,19.6563 Q735.5625,20.7188 735.5625,22.8125 Q735.5625,24.9063 736.25,25.9844 Q736.9375,27.0469 738.2813,27.0469 Q738.9063,27.0469 739.5,26.7813 Q740.0938,26.5 740.7188,25.9219 L740.7188,28.6406 Z " fill="#000000"/><text fill="#000000" font-family="sans-serif" font-size="14" lengthAdjust="spacing" textLength="83" x="755.25" y="27.8467">ProgramInfo</text><line style="stroke:#181818;stroke-width:0.5;" x1="708" x2="856" y1="39" y2="39"/><text fill="#000000" font-family="sans-serif" font-size="14" lengthAdjust="spacing" textLength="117" x="713" y="55.9951">Variable[] globals</text><text fill="#000000" font-family="sans-serif" font-size="14" lengthAdjust="spacing" textLength="138" x="713" y="72.292">Function[] functions</text><line style="stroke:#181818;stroke-width:0.5;" x1="708" x2="856" y1="79.5938" y2="79.5938"/></g><!--MD5=[ddd3640caf9622152148b6e9ec78ae77]
reverse link Address to AbsoluteAddress--><g id="link_Address_AbsoluteAddress"><path codeLine="21" d="M269.28,758.61 C227.38,782.3 175.56,811.6 137.06,833.37 " fill="none" id="Address-backto-AbsoluteAddress" style="stroke:#181818;stroke-width:1.0;"/><polygon fill="none" points="266.01,752.42,286.86,748.67,272.9,764.61,266.01,752.42" style="stroke:#181818;stroke-width:1.0;"/></g><!--MD5=[1b9c174150973b4275e99407c01bf9b7]
reverse link Address to StackAddress--><g id="link_Address_StackAddress"><path codeLine="22" d="M313.48,766.26 C300.53,788.38 285.61,813.89 274.21,833.37 " fill="none" id="Address-backto-StackAddress" style="stroke:#181818;stroke-width:1.0;"/><polygon fill="none" points="307.62,762.4,323.76,748.67,319.7,769.47,307.62,762.4" style="stroke:#181818;stroke-width:1.0;"/></g><!--MD5=[0e012bba5843f0624af83161bf7d4b37]
reverse link Address to RegisterAddress--><g id="link_Address_RegisterAddress"><path codeLine="23" d="M370.39,766.02 C381.57,785.14 394.26,806.82 404.87,824.96 " fill="none" id="Address-backto-RegisterAddress" style="stroke:#181818;stroke-width:1.0;"/><polygon fill="none" points="364.3,769.47,360.24,748.67,376.38,762.4,364.3,769.47" style="stroke:#181818;stroke-width:1.0;"/></g><!--MD5=[3a9d6aeaa19b6742e4dbed5aa201078b]
reverse link Address to RegisterOffsetAddress--><g id="link_Address_RegisterOffsetAddress"><path codeLine="24" d="M421.19,757.78 C462.31,778.7 512.36,804.16 553.27,824.96 " fill="none" id="Address-backto-RegisterOffsetAddress" style="stroke:#181818;stroke-width:1.0;"/><polygon fill="none" points="417.94,763.98,403.29,748.67,424.29,751.5,417.94,763.98" style="stroke:#181818;stroke-width:1.0;"/></g><!--MD5=[447356d2a223a0024dc236bfbbf1b81f]
reverse link AddressLiveRange to Address--><g id="link_AddressLiveRange_Address"><path codeLine="32" d="M496.07,615.16 C460.41,638.38 420.14,664.61 389.72,684.42 " fill="none" id="AddressLiveRange-backto-Address" style="stroke:#181818;stroke-width:1.0;"/><polygon fill="none" points="506.97,608.06,499.7594,607.9765,496.909,614.6003,504.1196,614.6838,506.97,608.06" style="stroke:#181818;stroke-width:1.0;"/></g><!--MD5=[c609ac484b44b75cb5d51212144776f5]
reverse link DataType to DataTypeFloat--><g id="link_DataType_DataTypeFloat"><path codeLine="64" d="M1016.73,580.9 C977.81,589.31 932.24,599.15 891,608 C766.14,634.81 729.29,622.41 610,668 C593.41,674.34 576.18,683.68 561.76,692.4 " fill="none" id="DataType-backto-DataTypeFloat" style="stroke:#181818;stroke-width:1.0;"/><polygon fill="none" points="1015.39,574.03,1036.42,576.65,1018.35,587.71,1015.39,574.03" style="stroke:#181818;stroke-width:1.0;"/></g><!--MD5=[18045412f7788869b1b68f08eb9f035e]
reverse link DataType to DataTypeFunctionPrototype--><g id="link_DataType_DataTypeFunctionPrototype"><path codeLine="65" d="M1017.78,599.45 C967.63,620.4 905.39,646.4 852.55,668.48 " fill="none" id="DataType-backto-DataTypeFunctionPrototype" style="stroke:#181818;stroke-width:1.0;"/><polygon fill="none" points="1015.22,592.93,1036.37,591.68,1020.61,605.85,1015.22,592.93" style="stroke:#181818;stroke-width:1.0;"/></g><!--MD5=[9b6d953be5fa7749bffdeebb0bd0d124]
reverse link DataType to DataTypeInt--><g id="link_DataType_DataTypeInt"><path codeLine="66" d="M1053.94,613.78 C1028.73,637.31 999.98,664.16 978.35,684.36 " fill="none" id="DataType-backto-DataTypeInt" style="stroke:#181818;stroke-width:1.0;"/><polygon fill="none" points="1049.29,608.55,1068.68,600.01,1058.84,618.78,1049.29,608.55" style="stroke:#181818;stroke-width:1.0;"/></g><!--MD5=[37617c3dd5315de89a30449968ed11fe]
reverse link DataType to DataTypePointer--><g id="link_DataType_DataTypePointer"><path codeLine="67" d="M1111,620.15 C1111,642.05 1111,665.96 1111,684.36 " fill="none" id="DataType-backto-DataTypePointer" style="stroke:#181818;stroke-width:1.0;"/><polygon fill="none" points="1104,620.01,1111,600.01,1118,620.01,1104,620.01" style="stroke:#181818;stroke-width:1.0;"/></g><!--MD5=[75bf714d71dcf272ef44e87acdb58502]
reverse link DataType to DataTypeStruct--><g id="link_DataType_DataTypeStruct"><path codeLine="68" d="M1179.05,612.46 C1210.28,636.3 1246.27,663.78 1273.22,684.36 " fill="none" id="DataType-backto-DataTypeStruct" style="stroke:#181818;stroke-width:1.0;"/><polygon fill="none" points="1174.4,617.72,1162.75,600.01,1182.89,606.59,1174.4,617.72" style="stroke:#181818;stroke-width:1.0;"/></g><!--MD5=[3b23af1dd5080466c7bbf094215c9e51]
reverse link DataType to DataTypeUndefined--><g id="link_DataType_DataTypeUndefined"><path codeLine="69" d="M1204.93,589.64 C1268.06,609.94 1352.79,638.56 1426,668 C1444.31,675.36 1464.04,684.31 1481.23,692.44 " fill="none" id="DataType-backto-DataTypeUndefined" style="stroke:#181818;stroke-width:1.0;"/><polygon fill="none" points="1202.57,596.24,1185.65,583.49,1206.83,582.9,1202.57,596.24" style="stroke:#181818;stroke-width:1.0;"/></g><!--MD5=[b7c86309bcc2c8cd0c9b7f63102a4976]
reverse link DataType to DataTypeUnion--><g id="link_DataType_DataTypeUnion"><path codeLine="70" d="M1205.73,574.37 C1310.87,591.08 1484.87,622.68 1630,668 C1644.72,672.6 1660.15,678.43 1674.69,684.43 " fill="none" id="DataType-backto-DataTypeUnion" style="stroke:#181818;stroke-width:1.0;"/><polygon fill="none" points="1204.33,581.23,1185.65,571.22,1206.49,567.4,1204.33,581.23" style="stroke:#181818;stroke-width:1.0;"/></g><!--MD5=[51c73a9cc41187a8d62556685bf6a294]
reverse link DataType to DataTypeVoid--><g id="link_DataType_DataTypeVoid"><path codeLine="71" d="M1205.98,562.62 C1350,568.39 1630.52,589.69 1854,668 C1870.77,673.88 1887.94,683.36 1902.14,692.31 " fill="none" id="DataType-backto-DataTypeVoid" style="stroke:#181818;stroke-width:1.0;"/><polygon fill="none" points="1205.47,569.61,1185.74,561.88,1205.99,555.62,1205.47,569.61" style="stroke:#181818;stroke-width:1.0;"/></g><!--MD5=[6aceab7d2feb9e6e7babd6279f0b4e06]
reverse link DataType to DataTypeArray--><g id="link_DataType_DataTypeArray"><path codeLine="72" d="M1205.91,560.45 C1373.5,562.82 1731.14,578.99 2017,668 C2024,670.18 2031.1,672.9 2038.07,675.93 " fill="none" id="DataType-backto-DataTypeArray" style="stroke:#181818;stroke-width:1.0;"/><polygon fill="none" points="1205.63,567.44,1185.71,560.22,1205.79,553.44,1205.63,567.44" style="stroke:#181818;stroke-width:1.0;"/></g><!--MD5=[2b842af2e5a7dafe9cea5449f509d37f]
reverse link Variable to AddressLiveRange--><g id="link_Variable_AddressLiveRange"><path codeLine="80" d="M654.93,461.72 C642.37,477.94 628.88,495.36 616.86,510.89 " fill="none" id="Variable-backto-AddressLiveRange" style="stroke:#181818;stroke-width:1.0;"/><polygon fill="none" points="663.02,451.27,656.1849,453.5681,655.6774,460.7614,662.5125,458.4632,663.02,451.27" style="stroke:#181818;stroke-width:1.0;"/></g><!--MD5=[01040ac293b70409d9b2490dfc8515eb]
reverse link Variable to DataType--><g id="link_Variable_DataType"><path codeLine="81" d="M824.33,450.39 C893.49,476.47 977.28,508.07 1036.35,530.35 " fill="none" id="Variable-backto-DataType" style="stroke:#181818;stroke-width:1.0;"/><polygon fill="none" points="812.04,445.75,816.2384,451.6129,823.2651,449.9923,819.0667,444.1295,812.04,445.75" style="stroke:#181818;stroke-width:1.0;"/></g><!--MD5=[101180ec0914ead2f7bb45f3cd8add36]
reverse link Function to Address--><g id="link_Function_Address"><path codeLine="92" d="M857.69,307.33 C856.48,352.02 849.88,406.53 829,451 C787.72,538.91 760.95,559.17 677,608 C584.56,661.76 544.67,631.94 444,668 C430.85,672.71 417.09,678.49 404.09,684.38 " fill="none" id="Function-backto-Address" style="stroke:#181818;stroke-width:1.0;"/><polygon fill="none" points="857.91,294.1,853.8182,300.0378,857.7254,306.0986,861.8172,300.1608,857.91,294.1" style="stroke:#181818;stroke-width:1.0;"/></g><!--MD5=[13fd9a28cfcea6acde5b5c5719b2e212]
reverse link Function to Variable--><g id="link_Function_Variable"><path codeLine="93" d="M783.49,304.19 C768.89,321.2 753.98,338.58 740.87,353.86 " fill="none" id="Function-backto-Variable" style="stroke:#181818;stroke-width:1.0;"/><polygon fill="none" points="792.03,294.23,785.0887,296.184,784.2227,303.3429,791.164,301.3889,792.03,294.23" style="stroke:#181818;stroke-width:1.0;"/></g><!--MD5=[20bc3d4fa0bd490fe2a1748171686777]
reverse link Function to DataType--><g id="link_Function_DataType"><path codeLine="94" d="M917.31,304.9 C969.38,373.07 1040.86,466.66 1080.82,518.99 " fill="none" id="Function-backto-DataType" style="stroke:#181818;stroke-width:1.0;"/><polygon fill="none" points="909.13,294.19,909.5917,301.3863,916.4121,303.7279,915.9503,296.5316,909.13,294.19" style="stroke:#181818;stroke-width:1.0;"/></g><!--MD5=[6bcb997c4b6f1329f6d92d1b1d6ff482]
reverse link ProgramInfo to Variable--><g id="link_ProgramInfo_Variable"><path codeLine="101" d="M769.73,101.31 C753.83,169.78 726.32,288.22 711.04,353.99 " fill="none" id="ProgramInfo-backto-Variable" style="stroke:#181818;stroke-width:1.0;"/><polygon fill="none" points="772.75,88.31,767.4951,93.2483,770.0324,99.9982,775.2873,95.06,772.75,88.31" style="stroke:#181818;stroke-width:1.0;"/></g><!--MD5=[e872ab771223e2cf5579ce6cfedbbfc6]
reverse link ProgramInfo to Function--><g id="link_ProgramInfo_Function"><path codeLine="102" d="M803.78,100.38 C810.05,115.31 817,131.87 823.69,147.8 " fill="none" id="ProgramInfo-backto-Function" style="stroke:#181818;stroke-width:1.0;"/><polygon fill="none" points="798.7,88.28,797.3327,95.3603,803.3425,99.3456,804.7098,92.2653,798.7,88.28" style="stroke:#181818;stroke-width:1.0;"/></g><!--MD5=[7b1b98c77818383c2aff3986441473d4]
@startuml dsl

class Address {
    AddressType addrtype
}

class AbsoluteAddress {
    int addr
}
class StackAddress {
    int offset
}
class RegisterAddress {
    int register
    int byte_offset
}
class RegisterOffsetAddress {
    int register
    int offset
}

Address <|- - AbsoluteAddress
Address <|- - StackAddress
Address <|- - RegisterAddress
Address <|- - RegisterOffsetAddress

class AddressLiveRange {
    Address addr
    Address startpc
    Address endpc
}

AddressLiveRange o- - Address

class DataType {
    MetaType metatype
    int size
}

class DataTypeFloat {}
class DataTypeFunctionPrototype {
    DataType rettype
    list paramtypes
    bool variadic
}
class DataTypeInt {
    bool signed
}
class DataTypePointer {
    DataType basetype
}
class DataTypeStruct {
    DataType[] membertypes
}
class DataTypeUndefined {}
class DataTypeUnion {
    DataType[] membertypes
}
class DataTypeVoid {}
class DataTypeArray {
    DataType basetype
    tuple dimensions
}

DataType <|- - DataTypeFloat
DataType <|- - DataTypeFunctionPrototype
DataType <|- - DataTypeInt
DataType <|- - DataTypePointer
DataType <|- - DataTypeStruct
DataType <|- - DataTypeUndefined
DataType <|- - DataTypeUnion
DataType <|- - DataTypeVoid
DataType <|- - DataTypeArray

class Variable {
    String name
    AddressLiveRange[] liveranges
    DataType dtype
}

Variable o- - AddressLiveRange
Variable o- - DataType

class Function {
    String name
    Address startaddr
    Address endaddr
    Variable[] vars
    Variable[] params
    DataType rettype
}

Function o- - Address
Function o- - Variable
Function o- - DataType

class ProgramInfo {
    Variable[] globals
    Function[] functions
}

ProgramInfo o- - Variable
ProgramInfo o- - Function

@enduml

PlantUML version 1.2022.7(Mon Aug 22 12:01:30 CDT 2022)
(GPL source distribution)
Java Runtime: OpenJDK Runtime Environment
JVM: OpenJDK 64-Bit Server VM
Default Encoding: UTF-8
Language: en
Country: null
--></g></svg>