<?xml version="1.0" encoding="UTF-8" standalone="no"?>
<!DOCTYPE svg PUBLIC "-//W3C//DTD SVG 1.1//EN"
 "http://www.w3.org/Graphics/SVG/1.1/DTD/svg11.dtd">
<!-- Generated by graphviz version 2.43.0 (0)
 -->
<!-- Title: DSL Pages: 1 -->
<svg width="2054pt" height="638pt"
 viewBox="0.00 0.00 2054.28 638.00" xmlns="http://www.w3.org/2000/svg" xmlns:xlink="http://www.w3.org/1999/xlink">
<g id="graph0" class="graph" transform="scale(1 1) rotate(0) translate(4 634)">
<title>DSL</title>
<polygon fill="white" stroke="transparent" points="-4,4 -4,-634 2050.28,-634 2050.28,4 -4,4"/>
<!-- ProgramInfo -->
<g id="node1" class="node">
<title>ProgramInfo</title>
<ellipse fill="none" stroke="black" cx="69.54" cy="-378" rx="69.59" ry="18"/>
<text text-anchor="middle" x="69.54" y="-374.3" font-family="Times,serif" font-size="14.00">ProgramInfo</text>
</g>
<!-- Variable[] -->
<g id="node2" class="node">
<title>Variable[]</title>
<ellipse fill="none" stroke="black" cx="696.96" cy="-455" rx="55.79" ry="18"/>
<text text-anchor="middle" x="696.96" y="-451.3" font-family="Times,serif" font-size="14.00">Variable[]</text>
</g>
<!-- ProgramInfo&#45;&gt;Variable[] -->
<g id="edge1" class="edge">
<title>ProgramInfo&#45;&gt;Variable[]</title>
<path fill="none" stroke="black" d="M138.04,-381.51C196.62,-384.94 283.63,-390.98 359.08,-400 457.72,-411.79 571.64,-431.73 638.53,-444.08"/>
<polygon fill="black" stroke="black" points="637.98,-447.54 648.45,-445.92 639.25,-440.66 637.98,-447.54"/>
<text text-anchor="middle" x="403.08" y="-411.8" font-family="Times,serif" font-size="14.00">globals</text>
</g>
<!-- Function[] -->
<g id="node3" class="node">
<title>Function[]</title>
<ellipse fill="none" stroke="black" cx="300.58" cy="-427" rx="58.49" ry="18"/>
<text text-anchor="middle" x="300.58" y="-423.3" font-family="Times,serif" font-size="14.00">Function[]</text>
</g>
<!-- ProgramInfo&#45;&gt;Function[] -->
<g id="edge2" class="edge">
<title>ProgramInfo&#45;&gt;Function[]</title>
<path fill="none" stroke="black" d="M123.67,-389.36C159.18,-396.96 205.88,-406.95 242.23,-414.73"/>
<polygon fill="black" stroke="black" points="241.68,-418.19 252.19,-416.86 243.15,-411.35 241.68,-418.19"/>
<text text-anchor="middle" x="190.59" y="-412.8" font-family="Times,serif" font-size="14.00">functions</text>
</g>
<!-- Variable -->
<g id="node5" class="node">
<title>Variable</title>
<ellipse fill="none" stroke="black" cx="890.6" cy="-455" rx="48.99" ry="18"/>
<text text-anchor="middle" x="890.6" y="-451.3" font-family="Times,serif" font-size="14.00">Variable</text>
</g>
<!-- Variable[]&#45;&gt;Variable -->
<g id="edge3" class="edge">
<title>Variable[]&#45;&gt;Variable</title>
<path fill="none" stroke="black" d="M752.88,-455C777.57,-455 806.72,-455 831.75,-455"/>
<polygon fill="black" stroke="black" points="831.84,-458.5 841.84,-455 831.84,-451.5 831.84,-458.5"/>
<text text-anchor="middle" x="797.36" y="-458.8" font-family="Times,serif" font-size="14.00">[i]</text>
</g>
<!-- Function -->
<g id="node6" class="node">
<title>Function</title>
<ellipse fill="none" stroke="black" cx="499.07" cy="-493" rx="51.99" ry="18"/>
<text text-anchor="middle" x="499.07" y="-489.3" font-family="Times,serif" font-size="14.00">Function</text>
</g>
<!-- Function[]&#45;&gt;Function -->
<g id="edge4" class="edge">
<title>Function[]&#45;&gt;Function</title>
<path fill="none" stroke="black" d="M340.87,-440.2C372.78,-450.91 417.85,-466.05 451.55,-477.37"/>
<polygon fill="black" stroke="black" points="450.58,-480.74 461.18,-480.61 452.81,-474.1 450.58,-480.74"/>
<text text-anchor="middle" x="403.08" y="-472.8" font-family="Times,serif" font-size="14.00">[i]</text>
</g>
<!-- AddressLiveRange[] -->
<g id="node4" class="node">
<title>AddressLiveRange[]</title>
<ellipse fill="none" stroke="black" cx="1154.34" cy="-457" rx="103.98" ry="18"/>
<text text-anchor="middle" x="1154.34" y="-453.3" font-family="Times,serif" font-size="14.00">AddressLiveRange[]</text>
</g>
<!-- AddressLiveRange -->
<g id="node10" class="node">
<title>AddressLiveRange</title>
<ellipse fill="none" stroke="black" cx="1452.02" cy="-504" rx="96.68" ry="18"/>
<text text-anchor="middle" x="1452.02" y="-500.3" font-family="Times,serif" font-size="14.00">AddressLiveRange</text>
</g>
<!-- AddressLiveRange[]&#45;&gt;AddressLiveRange -->
<g id="edge5" class="edge">
<title>AddressLiveRange[]&#45;&gt;AddressLiveRange</title>
<path fill="none" stroke="black" d="M1231.48,-469.1C1273.23,-475.74 1325.03,-483.97 1367.83,-490.78"/>
<polygon fill="black" stroke="black" points="1367.51,-494.27 1377.94,-492.38 1368.61,-487.36 1367.51,-494.27"/>
<text text-anchor="middle" x="1284.33" y="-480.8" font-family="Times,serif" font-size="14.00">[i]</text>
</g>
<!-- Variable&#45;&gt;AddressLiveRange[] -->
<g id="edge14" class="edge">
<title>Variable&#45;&gt;AddressLiveRange[]</title>
<path fill="none" stroke="black" d="M939.48,-455.33C966.71,-455.52 1001.44,-455.76 1032.35,-456 1034.92,-456.02 1037.53,-456.04 1040.15,-456.06"/>
<polygon fill="black" stroke="black" points="1040.34,-459.56 1050.37,-456.14 1040.4,-452.56 1040.34,-459.56"/>
<text text-anchor="middle" x="994.85" y="-459.8" font-family="Times,serif" font-size="14.00">liveranges</text>
</g>
<!-- str -->
<g id="node7" class="node">
<title>str</title>
<ellipse fill="none" stroke="black" cx="1154.34" cy="-514" rx="27" ry="18"/>
<text text-anchor="middle" x="1154.34" y="-510.3" font-family="Times,serif" font-size="14.00">str</text>
</g>
<!-- Variable&#45;&gt;str -->
<g id="edge12" class="edge">
<title>Variable&#45;&gt;str</title>
<path fill="none" stroke="black" d="M931.55,-464.88C940.06,-466.94 948.99,-469.07 957.35,-471 1013.58,-484.01 1079.13,-498.19 1118.37,-506.58"/>
<polygon fill="black" stroke="black" points="1117.73,-510.02 1128.24,-508.68 1119.19,-503.17 1117.73,-510.02"/>
<text text-anchor="middle" x="994.85" y="-489.8" font-family="Times,serif" font-size="14.00">name</text>
</g>
<!-- DataType -->
<g id="node8" class="node">
<title>DataType</title>
<ellipse fill="none" stroke="black" cx="1154.34" cy="-288" rx="55.49" ry="18"/>
<text text-anchor="middle" x="1154.34" y="-284.3" font-family="Times,serif" font-size="14.00">DataType</text>
</g>
<!-- Variable&#45;&gt;DataType -->
<g id="edge13" class="edge">
<title>Variable&#45;&gt;DataType</title>
<path fill="none" stroke="black" d="M927.87,-443.19C957.27,-432.77 999.12,-416 1032.35,-395 1069.78,-371.35 1107.07,-336.16 1130.15,-312.67"/>
<polygon fill="black" stroke="black" points="1132.67,-315.1 1137.13,-305.48 1127.65,-310.22 1132.67,-315.1"/>
<text text-anchor="middle" x="994.85" y="-434.8" font-family="Times,serif" font-size="14.00">dtype</text>
</g>
<!-- Function&#45;&gt;Variable[] -->
<g id="edge7" class="edge">
<title>Function&#45;&gt;Variable[]</title>
<path fill="none" stroke="black" d="M523.16,-476.96C536.04,-468.98 552.74,-460.17 569.07,-456 589.52,-450.78 612.44,-449.32 633.11,-449.55"/>
<polygon fill="black" stroke="black" points="633.29,-453.05 643.37,-449.8 633.46,-446.06 633.29,-453.05"/>
<text text-anchor="middle" x="596.07" y="-459.8" font-family="Times,serif" font-size="14.00">params</text>
</g>
<!-- Function&#45;&gt;Variable[] -->
<g id="edge8" class="edge">
<title>Function&#45;&gt;Variable[]</title>
<path fill="none" stroke="black" d="M546,-485.22C569.16,-481.19 597.64,-476.06 623.07,-471 628.77,-469.87 634.71,-468.64 640.63,-467.38"/>
<polygon fill="black" stroke="black" points="641.48,-470.78 650.53,-465.26 640.01,-463.94 641.48,-470.78"/>
<text text-anchor="middle" x="596.07" y="-484.8" font-family="Times,serif" font-size="14.00">vars</text>
</g>
<!-- Function&#45;&gt;str -->
<g id="edge6" class="edge">
<title>Function&#45;&gt;str</title>
<path fill="none" stroke="black" d="M549.03,-498.44C555.76,-499.05 562.58,-499.59 569.07,-500 776.06,-512.96 1025,-514.15 1116.93,-514.1"/>
<polygon fill="black" stroke="black" points="1117.11,-517.6 1127.1,-514.09 1117.1,-510.6 1117.11,-517.6"/>
<text text-anchor="middle" x="797.36" y="-513.8" font-family="Times,serif" font-size="14.00">name</text>
</g>
<!-- Function&#45;&gt;DataType -->
<g id="edge11" class="edge">
<title>Function&#45;&gt;DataType</title>
<path fill="none" stroke="black" d="M520.07,-476.3C533.26,-466.01 551.34,-453.24 569.07,-445 750.38,-360.71 985.11,-314.97 1093.56,-297.05"/>
<polygon fill="black" stroke="black" points="1094.35,-300.47 1103.66,-295.4 1093.22,-293.56 1094.35,-300.47"/>
<text text-anchor="middle" x="797.36" y="-372.8" font-family="Times,serif" font-size="14.00">rettype</text>
</g>
<!-- Address -->
<g id="node9" class="node">
<title>Address</title>
<ellipse fill="none" stroke="black" cx="1729.8" cy="-531" rx="48.19" ry="18"/>
<text text-anchor="middle" x="1729.8" y="-527.3" font-family="Times,serif" font-size="14.00">Address</text>
</g>
<!-- Function&#45;&gt;Address -->
<g id="edge9" class="edge">
<title>Function&#45;&gt;Address</title>
<path fill="none" stroke="black" d="M509.98,-510.84C521.57,-529.92 542.57,-559.5 569.07,-575 618.62,-603.97 638.57,-599 695.96,-599 695.96,-599 695.96,-599 1453.02,-599 1547.26,-599 1575.3,-607.66 1663.71,-575 1677.17,-570.03 1690.55,-561.71 1701.66,-553.64"/>
<polygon fill="black" stroke="black" points="1703.81,-556.4 1709.67,-547.58 1699.58,-550.82 1703.81,-556.4"/>
<text text-anchor="middle" x="994.85" y="-602.8" font-family="Times,serif" font-size="14.00">startaddr</text>
</g>
<!-- Function&#45;&gt;Address -->
<g id="edge10" class="edge">
<title>Function&#45;&gt;Address</title>
<path fill="none" stroke="black" d="M526.32,-508.43C562.99,-528.49 632.24,-561 695.96,-561 695.96,-561 695.96,-561 1453.02,-561 1547,-561 1570.57,-555.53 1663.71,-543 1667.93,-542.43 1672.3,-541.77 1676.69,-541.07"/>
<polygon fill="black" stroke="black" points="1677.6,-544.46 1686.88,-539.35 1676.43,-537.56 1677.6,-544.46"/>
<text text-anchor="middle" x="994.85" y="-564.8" font-family="Times,serif" font-size="14.00">endaddr</text>
</g>
<!-- DataTypeArray -->
<g id="node15" class="node">
<title>DataTypeArray</title>
<ellipse fill="none" stroke="black" cx="1452.02" cy="-18" rx="81.49" ry="18"/>
<text text-anchor="middle" x="1452.02" y="-14.3" font-family="Times,serif" font-size="14.00">DataTypeArray</text>
</g>
<!-- DataType&#45;&gt;DataTypeArray -->
<g id="edge22" class="edge">
<title>DataType&#45;&gt;DataTypeArray</title>
<path fill="none" stroke="black" stroke-dasharray="5,2" d="M1161.12,-270.1C1176.89,-224.37 1225.25,-102.75 1310.33,-45 1328.44,-32.71 1350.72,-25.68 1372.17,-21.74"/>
</g>
<!-- DataTypeFloat -->
<g id="node16" class="node">
<title>DataTypeFloat</title>
<ellipse fill="none" stroke="black" cx="1452.02" cy="-450" rx="79.09" ry="18"/>
<text text-anchor="middle" x="1452.02" y="-446.3" font-family="Times,serif" font-size="14.00">DataTypeFloat</text>
</g>
<!-- DataType&#45;&gt;DataTypeFloat -->
<g id="edge23" class="edge">
<title>DataType&#45;&gt;DataTypeFloat</title>
<path fill="none" stroke="black" stroke-dasharray="5,2" d="M1169.97,-305.77C1195.29,-335.22 1250.33,-393.79 1310.33,-423 1331.13,-433.12 1355.38,-439.46 1377.83,-443.42"/>
</g>
<!-- DataTypeFunctionPrototype -->
<g id="node17" class="node">
<title>DataTypeFunctionPrototype</title>
<ellipse fill="none" stroke="black" cx="1452.02" cy="-396" rx="141.88" ry="18"/>
<text text-anchor="middle" x="1452.02" y="-392.3" font-family="Times,serif" font-size="14.00">DataTypeFunctionPrototype</text>
</g>
<!-- DataType&#45;&gt;DataTypeFunctionPrototype -->
<g id="edge24" class="edge">
<title>DataType&#45;&gt;DataTypeFunctionPrototype</title>
<path fill="none" stroke="black" stroke-dasharray="5,2" d="M1180.35,-304.01C1210.16,-322.39 1262.03,-352.15 1310.33,-369 1325.83,-374.41 1342.69,-378.82 1359.18,-382.39"/>
</g>
<!-- DataTypeInt -->
<g id="node18" class="node">
<title>DataTypeInt</title>
<ellipse fill="none" stroke="black" cx="1452.02" cy="-342" rx="68.49" ry="18"/>
<text text-anchor="middle" x="1452.02" y="-338.3" font-family="Times,serif" font-size="14.00">DataTypeInt</text>
</g>
<!-- DataType&#45;&gt;DataTypeInt -->
<g id="edge25" class="edge">
<title>DataType&#45;&gt;DataTypeInt</title>
<path fill="none" stroke="black" stroke-dasharray="5,2" d="M1202.85,-296.68C1255.41,-306.28 1340.02,-321.73 1395.57,-331.87"/>
</g>
<!-- DataTypePointer -->
<g id="node19" class="node">
<title>DataTypePointer</title>
<ellipse fill="none" stroke="black" cx="1452.02" cy="-288" rx="89.08" ry="18"/>
<text text-anchor="middle" x="1452.02" y="-284.3" font-family="Times,serif" font-size="14.00">DataTypePointer</text>
</g>
<!-- DataType&#45;&gt;DataTypePointer -->
<g id="edge26" class="edge">
<title>DataType&#45;&gt;DataTypePointer</title>
<path fill="none" stroke="black" stroke-dasharray="5,2" d="M1209.92,-288C1252.72,-288 1313.14,-288 1362.8,-288"/>
</g>
<!-- DataTypeStruct -->
<g id="node20" class="node">
<title>DataTypeStruct</title>
<ellipse fill="none" stroke="black" cx="1452.02" cy="-234" rx="84.49" ry="18"/>
<text text-anchor="middle" x="1452.02" y="-230.3" font-family="Times,serif" font-size="14.00">DataTypeStruct</text>
</g>
<!-- DataType&#45;&gt;DataTypeStruct -->
<g id="edge27" class="edge">
<title>DataType&#45;&gt;DataTypeStruct</title>
<path fill="none" stroke="black" stroke-dasharray="5,2" d="M1202.85,-279.32C1252.88,-270.19 1331.95,-255.75 1387.35,-245.63"/>
</g>
<!-- DataTypeUndefined -->
<g id="node21" class="node">
<title>DataTypeUndefined</title>
<ellipse fill="none" stroke="black" cx="1452.02" cy="-180" rx="102.88" ry="18"/>
<text text-anchor="middle" x="1452.02" y="-176.3" font-family="Times,serif" font-size="14.00">DataTypeUndefined</text>
</g>
<!-- DataType&#45;&gt;DataTypeUndefined -->
<g id="edge28" class="edge">
<title>DataType&#45;&gt;DataTypeUndefined</title>
<path fill="none" stroke="black" stroke-dasharray="5,2" d="M1180.35,-271.99C1210.16,-253.61 1262.03,-223.85 1310.33,-207 1329.59,-200.28 1350.94,-195.1 1371.08,-191.16"/>
</g>
<!-- DataTypeUnion -->
<g id="node22" class="node">
<title>DataTypeUnion</title>
<ellipse fill="none" stroke="black" cx="1452.02" cy="-126" rx="83.39" ry="18"/>
<text text-anchor="middle" x="1452.02" y="-122.3" font-family="Times,serif" font-size="14.00">DataTypeUnion</text>
</g>
<!-- DataType&#45;&gt;DataTypeUnion -->
<g id="edge29" class="edge">
<title>DataType&#45;&gt;DataTypeUnion</title>
<path fill="none" stroke="black" stroke-dasharray="5,2" d="M1169.97,-270.23C1195.29,-240.78 1250.33,-182.21 1310.33,-153 1330.34,-143.26 1353.56,-137.03 1375.29,-133.04"/>
</g>
<!-- DataTypeVoid -->
<g id="node23" class="node">
<title>DataTypeVoid</title>
<ellipse fill="none" stroke="black" cx="1452.02" cy="-72" rx="75.29" ry="18"/>
<text text-anchor="middle" x="1452.02" y="-68.3" font-family="Times,serif" font-size="14.00">DataTypeVoid</text>
</g>
<!-- DataType&#45;&gt;DataTypeVoid -->
<g id="edge30" class="edge">
<title>DataType&#45;&gt;DataTypeVoid</title>
<path fill="none" stroke="black" stroke-dasharray="5,2" d="M1164.33,-270.2C1184.63,-231.98 1237.94,-142.07 1310.33,-99 1330.74,-86.85 1355.5,-80.01 1378.53,-76.21"/>
</g>
<!-- AbsoluteAddress -->
<g id="node11" class="node">
<title>AbsoluteAddress</title>
<ellipse fill="none" stroke="black" cx="1930.59" cy="-612" rx="89.08" ry="18"/>
<text text-anchor="middle" x="1930.59" y="-608.3" font-family="Times,serif" font-size="14.00">AbsoluteAddress</text>
</g>
<!-- Address&#45;&gt;AbsoluteAddress -->
<g id="edge18" class="edge">
<title>Address&#45;&gt;AbsoluteAddress</title>
<path fill="none" stroke="black" stroke-dasharray="5,2" d="M1751.46,-547.11C1767.83,-559.16 1791.73,-575.18 1814.9,-585 1829.87,-591.35 1846.6,-596.36 1862.56,-600.25"/>
</g>
<!-- RegisterAddress -->
<g id="node12" class="node">
<title>RegisterAddress</title>
<ellipse fill="none" stroke="black" cx="1930.59" cy="-558" rx="87.99" ry="18"/>
<text text-anchor="middle" x="1930.59" y="-554.3" font-family="Times,serif" font-size="14.00">RegisterAddress</text>
</g>
<!-- Address&#45;&gt;RegisterAddress -->
<g id="edge19" class="edge">
<title>Address&#45;&gt;RegisterAddress</title>
<path fill="none" stroke="black" stroke-dasharray="5,2" d="M1775.41,-537.06C1799.45,-540.32 1829.71,-544.43 1857.04,-548.15"/>
</g>
<!-- RegisterOffsetAddress -->
<g id="node13" class="node">
<title>RegisterOffsetAddress</title>
<ellipse fill="none" stroke="black" cx="1930.59" cy="-504" rx="115.88" ry="18"/>
<text text-anchor="middle" x="1930.59" y="-500.3" font-family="Times,serif" font-size="14.00">RegisterOffsetAddress</text>
</g>
<!-- Address&#45;&gt;RegisterOffsetAddress -->
<g id="edge20" class="edge">
<title>Address&#45;&gt;RegisterOffsetAddress</title>
<path fill="none" stroke="black" stroke-dasharray="5,2" d="M1775.41,-524.94C1795.33,-522.24 1819.52,-518.95 1842.77,-515.79"/>
</g>
<!-- StackAddress -->
<g id="node14" class="node">
<title>StackAddress</title>
<ellipse fill="none" stroke="black" cx="1930.59" cy="-450" rx="74.19" ry="18"/>
<text text-anchor="middle" x="1930.59" y="-446.3" font-family="Times,serif" font-size="14.00">StackAddress</text>
</g>
<!-- Address&#45;&gt;StackAddress -->
<g id="edge21" class="edge">
<title>Address&#45;&gt;StackAddress</title>
<path fill="none" stroke="black" stroke-dasharray="5,2" d="M1751.46,-514.89C1767.83,-502.84 1791.73,-486.82 1814.9,-477 1831.94,-469.77 1851.27,-464.28 1869.13,-460.2"/>
</g>
<!-- AddressLiveRange&#45;&gt;Address -->
<g id="edge15" class="edge">
<title>AddressLiveRange&#45;&gt;Address</title>
<path fill="none" stroke="black" d="M1538.01,-512.32C1581.89,-516.62 1634.18,-521.74 1672.92,-525.53"/>
<polygon fill="black" stroke="black" points="1672.67,-529.02 1682.96,-526.51 1673.35,-522.05 1672.67,-529.02"/>
<text text-anchor="middle" x="1637.71" y="-527.8" font-family="Times,serif" font-size="14.00">addr</text>
</g>
<!-- AddressLiveRange&#45;&gt;Address -->
<g id="edge16" class="edge">
<title>AddressLiveRange&#45;&gt;Address</title>
<path fill="none" stroke="black" d="M1531.47,-493.66C1571.51,-490.6 1620.71,-490.28 1663.71,-500 1674.05,-502.34 1684.68,-506.53 1694.28,-511.08"/>
<polygon fill="black" stroke="black" points="1692.97,-514.34 1703.47,-515.71 1696.11,-508.09 1692.97,-514.34"/>
<text text-anchor="middle" x="1637.71" y="-503.8" font-family="Times,serif" font-size="14.00">startpc</text>
</g>
<!-- AddressLiveRange&#45;&gt;Address -->
<g id="edge17" class="edge">
<title>AddressLiveRange&#45;&gt;Address</title>
<path fill="none" stroke="black" d="M1521.08,-491.35C1544.16,-486.95 1570.08,-481.89 1593.71,-477 1601.73,-475.34 1603.56,-473.89 1611.71,-473 1634.68,-470.48 1642.11,-464.77 1663.71,-473 1681.28,-479.69 1697.12,-493.55 1708.78,-506.04"/>
<polygon fill="black" stroke="black" points="1706.21,-508.42 1715.48,-513.56 1711.44,-503.76 1706.21,-508.42"/>
<text text-anchor="middle" x="1637.71" y="-476.8" font-family="Times,serif" font-size="14.00">endpc</text>
</g>
</g>
</svg>
